<?xml version="1.0" standalone="no"?><!DOCTYPE svg PUBLIC "-//W3C//DTD SVG 1.1//EN" "http://www.w3.org/Graphics/SVG/1.1/DTD/svg11.dtd" ><svg xmlns="http://www.w3.org/2000/svg"><metadata>Generated by Glyphter</metadata><defs><font id="Mipa" horiz-adv-x="0"><font-face units-per-em="1024" ascent="1024" descent="0" font-family="Mipa" font-weight="normal" /><missing-glyph horiz-adv-x="0" /><glyph unicode="&#x0041;" d="M968.428,583.94C968.428,583.94,583.44,583.94,583.44,583.94C583.44,583.94,583.44,968.93,583.44,968.93C583.44,986.468,559.625,1024.496,511.998,1024.496C464.37,1024.496,440.556,986.466,440.556,968.93C440.556,968.93,440.556,583.938,440.556,583.938C440.556,583.938,55.566,583.938,55.566,583.938C38.03,583.94,0,560.125,0,512.5C0,464.875,38.03,441.058,55.566,441.058C55.566,441.058,440.558,441.058,440.558,441.058C440.558,441.058,440.558,56.066,440.558,56.066C440.558,38.532,464.37,0.5,512,0.5C559.63,0.5,583.442,38.532,583.442,56.066C583.442,56.066,583.442,441.058,583.442,441.058C583.442,441.058,968.434,441.058,968.434,441.058C985.968,441.058,1024,464.87,1024,512.5C1024,560.13,985.964,583.94,968.428,583.94C968.428,583.94,968.428,583.94,968.428,583.94" class="icon-add"/><glyph unicode="&#x0042;" d="M1024,964.249C1024,964.249,964.636,1023.482,964.636,1023.482C964.636,1023.482,512,571.709,512,571.709C512,571.709,59.362,1023.482,59.362,1023.482C59.362,1023.482,0,964.249,0,964.249C0,964.249,452.638,512.473,452.638,512.473C452.638,512.473,0,60.731,0,60.731C0,60.731,59.362,1.5,59.362,1.5C59.362,1.5,512,453.241,512,453.241C512,453.241,964.636,1.5,964.636,1.5C964.636,1.5,1024,60.731,1024,60.731C1024,60.731,571.33,512.473,571.33,512.473C571.33,512.473,1024,964.249,1024,964.249" class="icon-cross"/><glyph unicode="&#x0043;" d="M311.619,512.527C311.619,512.527,774.074,974.982,774.074,974.982C785.448,986.356,785.448,1004.596,774.074,1015.97C762.701,1027.343,744.46,1027.343,733.087,1015.97C733.087,1015.97,250.03,532.913,250.03,532.913C238.657,521.54,238.657,503.299,250.03,491.926C250.03,491.926,733.087,9.084,733.087,9.084C738.666,3.504,746.177,0.5,753.473,0.5C760.769,0.5,768.28,3.29,773.86,9.084C785.233,20.457,785.233,38.698,773.86,50.072C773.86,50.072,311.619,512.527,311.619,512.527C311.619,512.527,311.619,512.527,311.619,512.527" class="icon-back"/><glyph unicode="&#x0044;" d="M375.833,290.133C375.833,290.133,375.833,170.667,375.833,170.667C375.833,170.667,495.3,170.667,495.3,170.667C495.3,170.667,495.3,290.133,495.3,290.133C495.3,290.133,375.833,290.133,375.833,290.133M375.833,597.333C375.833,597.333,375.833,477.867,375.833,477.867C375.833,477.867,495.3,477.867,495.3,477.867C495.3,477.867,495.3,597.333,495.3,597.333C495.3,597.333,375.833,597.333,375.833,597.333M375.833,443.733C375.833,443.733,375.833,324.267,375.833,324.267C375.833,324.267,495.3,324.267,495.3,324.267C495.3,324.267,495.3,443.733,495.3,443.733C495.3,443.733,375.833,443.733,375.833,443.733M222.233,443.733C222.233,443.733,222.233,324.267,222.233,324.267C222.233,324.267,341.7,324.267,341.7,324.267C341.7,324.267,341.7,443.733,341.7,443.733C341.7,443.733,222.233,443.733,222.233,443.733M222.233,597.333C222.233,597.333,222.233,477.867,222.233,477.867C222.233,477.867,341.7,477.867,341.7,477.867C341.7,477.867,341.7,597.333,341.7,597.333C341.7,597.333,222.233,597.333,222.233,597.333M222.233,290.133C222.233,290.133,222.233,170.667,222.233,170.667C222.233,170.667,341.7,170.667,341.7,170.667C341.7,170.667,341.7,290.133,341.7,290.133C341.7,290.133,222.233,290.133,222.233,290.133M683.033,597.333C683.033,597.333,683.033,477.867,683.033,477.867C683.033,477.867,802.5,477.867,802.5,477.867C802.5,477.867,802.5,597.333,802.5,597.333C802.5,597.333,683.033,597.333,683.033,597.333M973.167,955.733C973.167,955.733,853.7,955.733,853.7,955.733C853.7,955.733,853.7,1006.933,853.7,1006.933C853.7,1016.371,846.071,1024,836.633,1024C836.633,1024,717.167,1024,717.167,1024C707.729,1024,700.1,1016.371,700.1,1006.933C700.1,1006.933,700.1,955.733,700.1,955.733C700.1,955.733,324.633,955.733,324.633,955.733C324.633,955.733,324.633,1006.933,324.633,1006.933C324.633,1016.371,317.005,1024,307.567,1024C307.567,1024,188.1,1024,188.1,1024C178.662,1024,171.033,1016.371,171.033,1006.933C171.033,1006.933,171.033,955.733,171.033,955.733C171.033,955.733,51.567,955.733,51.567,955.733C42.129,955.733,34.5,948.105,34.5,938.667C34.5,938.667,34.5,750.933,34.5,750.933C34.5,750.933,34.5,17.067,34.5,17.067C34.5,7.629,42.129,0,51.567,0C51.567,0,973.167,0,973.167,0C982.605,0,990.233,7.629,990.233,17.067C990.233,17.067,990.233,750.933,990.233,750.933C990.233,750.933,990.233,938.667,990.233,938.667C990.233,948.105,982.605,955.733,973.167,955.733C973.167,955.733,973.167,955.733,973.167,955.733M836.633,477.867C836.633,477.867,836.633,443.733,836.633,443.733C836.633,443.733,836.633,324.267,836.633,324.267C836.633,324.267,836.633,290.133,836.633,290.133C836.633,290.133,836.633,136.533,836.633,136.533C836.633,136.533,683.033,136.533,683.033,136.533C683.033,136.533,648.9,136.533,648.9,136.533C648.9,136.533,529.433,136.533,529.433,136.533C529.433,136.533,495.3,136.533,495.3,136.533C495.3,136.533,375.833,136.533,375.833,136.533C375.833,136.533,341.7,136.533,341.7,136.533C341.7,136.533,188.1,136.533,188.1,136.533C188.1,136.533,188.1,290.133,188.1,290.133C188.1,290.133,188.1,324.267,188.1,324.267C188.1,324.267,188.1,443.733,188.1,443.733C188.1,443.733,188.1,477.867,188.1,477.867C188.1,477.867,188.1,631.467,188.1,631.467C188.1,631.467,341.7,631.467,341.7,631.467C341.7,631.467,375.833,631.467,375.833,631.467C375.833,631.467,495.3,631.467,495.3,631.467C495.3,631.467,529.433,631.467,529.433,631.467C529.433,631.467,648.9,631.467,648.9,631.467C648.9,631.467,683.033,631.467,683.033,631.467C683.033,631.467,836.633,631.467,836.633,631.467C836.633,631.467,836.633,477.867,836.633,477.867C836.633,477.867,836.633,477.867,836.633,477.867M956.1,768C956.1,768,68.633,768,68.633,768C68.633,768,68.633,921.6,68.633,921.6C68.633,921.6,171.033,921.6,171.033,921.6C171.033,921.6,171.033,870.4,171.033,870.4C171.033,860.962,178.662,853.333,188.1,853.333C188.1,853.333,307.567,853.333,307.567,853.333C317.005,853.333,324.633,860.962,324.633,870.4C324.633,870.4,324.633,921.6,324.633,921.6C324.633,921.6,700.1,921.6,700.1,921.6C700.1,921.6,700.1,870.4,700.1,870.4C700.1,860.962,707.729,853.333,717.167,853.333C717.167,853.333,836.633,853.333,836.633,853.333C846.071,853.333,853.7,860.962,853.7,870.4C853.7,870.4,853.7,921.6,853.7,921.6C853.7,921.6,956.1,921.6,956.1,921.6C956.1,921.6,956.1,768,956.1,768C956.1,768,956.1,768,956.1,768M683.033,443.733C683.033,443.733,683.033,324.267,683.033,324.267C683.033,324.267,802.5,324.267,802.5,324.267C802.5,324.267,802.5,443.733,802.5,443.733C802.5,443.733,683.033,443.733,683.033,443.733M683.033,290.133C683.033,290.133,683.033,170.667,683.033,170.667C683.033,170.667,802.5,170.667,802.5,170.667C802.5,170.667,802.5,290.133,802.5,290.133C802.5,290.133,683.033,290.133,683.033,290.133M529.433,290.133C529.433,290.133,529.433,170.667,529.433,170.667C529.433,170.667,648.9,170.667,648.9,170.667C648.9,170.667,648.9,290.133,648.9,290.133C648.9,290.133,529.433,290.133,529.433,290.133M529.433,443.733C529.433,443.733,529.433,324.267,529.433,324.267C529.433,324.267,648.9,324.267,648.9,324.267C648.9,324.267,648.9,443.733,648.9,443.733C648.9,443.733,529.433,443.733,529.433,443.733M529.433,597.333C529.433,597.333,529.433,477.867,529.433,477.867C529.433,477.867,648.9,477.867,648.9,477.867C648.9,477.867,648.9,597.333,648.9,597.333C648.9,597.333,529.433,597.333,529.433,597.333" class="icon-Valletta-Council"/><glyph unicode="&#x0045;" d="M221.867,448.669C174.815,448.669,136.533,410.389,136.533,363.334C136.533,316.282,174.813,278,221.867,278C268.92,278,307.202,316.28,307.202,363.334C307.202,410.387,268.922,448.669,221.867,448.669C221.867,448.669,221.867,448.669,221.867,448.669M221.867,312.134C193.639,312.134,170.667,335.106,170.667,363.334C170.667,391.563,193.639,414.535,221.867,414.535C250.095,414.535,273.068,391.563,273.068,363.334C273.068,335.106,250.095,312.134,221.867,312.134C221.867,312.134,221.867,312.134,221.867,312.134M1006.94,448.669C1006.94,448.669,1006.94,551.07,1006.94,551.07C1006.94,558.408,1002.246,564.946,995.266,567.266C995.266,567.266,898.975,599.368,898.975,599.368C862.709,660.79,812.857,719.245,702.69,738.547C702.486,738.581,702.28,738.615,702.076,738.649C498.623,766.775,345.876,720.883,247.809,602.2C174.815,601.142,100.301,585.884,56.474,557.826C33.776,543.286,20.31,517.975,19.046,491.043C19.046,491.043,17.066,448.667,17.066,448.667C7.646,448.667,0,441.021,0,431.601C0,431.601,0,363.334,0,363.334C0,353.914,7.646,346.268,17.066,346.268C17.066,346.268,85.332,346.268,85.332,346.268C94.805,346.268,102.383,354.05,102.399,363.523C102.399,363.609,102.417,363.693,102.417,363.797C102.673,429.555,156.041,482.803,221.867,482.803C287.848,482.803,341.334,429.317,341.334,363.336C340.106,352.976,348.28,346.27,358.4,346.27C358.4,346.27,665.602,346.27,665.602,346.27C675.074,346.27,682.652,354.052,682.668,363.525C682.668,363.611,682.684,363.695,682.684,363.799C682.94,429.557,736.308,482.805,802.135,482.805C868.115,482.805,921.601,429.319,921.601,363.338C920.373,352.978,928.547,346.272,938.667,346.272C938.667,346.272,1006.934,346.272,1006.934,346.272C1016.354,346.272,1024,353.918,1024,363.338C1024,363.338,1024,431.605,1024,431.605C1024.006,441.023,1016.36,448.669,1006.94,448.669C1006.94,448.669,1006.94,448.669,1006.94,448.669M546.137,610.802C546.137,606.092,542.315,602.268,537.603,602.268C537.603,602.268,315.036,602.268,315.036,602.268C307.152,602.268,303.568,611.962,309.386,617.27C368.608,671.252,443.923,702.126,536.733,710.335C541.733,710.779,546.137,706.751,546.137,701.732C546.137,701.732,546.137,610.802,546.137,610.802C546.137,610.802,546.137,610.802,546.137,610.802M751.176,610.718C751.124,606.042,747.318,602.27,742.642,602.27C742.642,602.27,588.803,602.27,588.803,602.27C584.093,602.27,580.269,606.092,580.269,610.804C580.269,610.804,580.269,703.988,580.269,703.988C580.269,708.717,584.041,712.607,588.751,712.607C622.782,712.641,658.794,710.167,697.074,704.874C715.302,701.666,731.548,697.262,746.328,691.852C749.724,690.606,751.892,687.312,751.858,683.694C751.858,683.694,751.176,610.718,751.176,610.718C751.176,610.718,751.176,610.718,751.176,610.718M840.249,602.27C840.249,602.27,793.845,602.27,793.845,602.27C789.101,602.27,785.261,606.144,785.311,610.888C785.311,610.888,785.755,657.138,785.755,657.138C785.823,664.186,793.861,668.01,799.545,663.846C817.995,650.364,833.337,634.304,847.007,616.076C851.273,610.394,847.347,602.27,840.249,602.27C840.249,602.27,840.249,602.27,840.249,602.27M802.139,448.669C755.086,448.669,716.804,410.389,716.804,363.334C716.804,316.282,755.084,278,802.139,278C849.191,278,887.473,316.28,887.473,363.334C887.471,410.387,849.191,448.669,802.139,448.669C802.139,448.669,802.139,448.669,802.139,448.669M802.139,312.134C773.911,312.134,750.938,335.106,750.938,363.334C750.938,391.563,773.911,414.535,802.139,414.535C830.367,414.535,853.339,391.563,853.339,363.334C853.339,335.106,830.367,312.134,802.139,312.134C802.139,312.134,802.139,312.134,802.139,312.134" class="icon-car"/><glyph unicode="&#x0046;" d="M11.815,472.962C3.938,480.838,0,492.654,0,500.531C0,508.408,3.938,520.223,11.815,528.1C11.815,528.1,66.954,583.238,66.954,583.238C82.708,598.992,106.338,598.992,122.092,583.238C122.092,583.238,126.031,579.3,126.031,579.3C126.031,579.3,342.646,346.931,342.646,346.931C350.523,339.054,362.338,339.054,370.215,346.931C370.215,346.931,897.969,894.377,897.969,894.377C897.969,894.377,901.908,894.377,901.908,894.377C901.908,894.377,901.908,894.377,901.908,894.377C917.662,910.131,941.292,910.131,957.046,894.377C957.046,894.377,1012.185,839.238,1012.185,839.238C1027.938,823.485,1027.938,799.854,1012.185,784.1C1012.185,784.1,1012.185,784.1,1012.185,784.1C1012.185,784.1,382.031,130.315,382.031,130.315C374.154,122.438,366.277,118.5,354.462,118.5C342.646,118.5,334.769,122.438,326.892,130.315C326.892,130.315,19.692,461.146,19.692,461.146C19.692,461.146,11.815,472.962,11.815,472.962C11.815,472.962,11.815,472.962,11.815,472.962" class="icon-checked"/><glyph unicode="&#x0047;" d="M908.469,657.72C908.469,657.72,883.884,657.72,883.884,657.72C883.884,657.72,883.884,776.372,883.884,776.372C883.884,777.117,883.764,777.857,883.667,778.613C883.628,783.32,882.128,787.951,878.903,791.612C878.903,791.612,681.471,1017.133,681.471,1017.133C681.413,1017.196,681.351,1017.215,681.312,1017.273C680.137,1018.593,678.765,1019.686,677.313,1020.627C676.882,1020.92,676.451,1021.161,675.999,1021.41C674.744,1022.091,673.41,1022.665,672.037,1023.077C671.666,1023.175,671.333,1023.328,670.962,1023.429C669.468,1023.78,667.919,1024,666.354,1024C666.354,1024,181.137,1024,181.137,1024C158.979,1024,140.981,1005.979,140.981,983.842C140.981,983.842,140.981,657.731,140.981,657.731C140.981,657.731,116.398,657.731,116.398,657.731C84.7,657.731,59,632.04,59,600.339C59,600.339,59,301.875,59,301.875C59,270.189,84.7,244.472,116.398,244.472C116.398,244.472,140.981,244.472,140.981,244.472C140.981,244.472,140.981,40.156,140.981,40.156C140.981,18.017,158.979,0,181.137,0C181.137,0,843.726,0,843.726,0C865.863,0,883.884,18.017,883.884,40.156C883.884,40.156,883.884,244.47,883.884,244.47C883.884,244.47,908.469,244.47,908.469,244.47C940.155,244.47,965.859,270.176,965.859,301.864C965.859,301.864,965.859,600.328,965.859,600.328C965.861,632.039,940.155,657.72,908.469,657.72C908.469,657.72,908.469,657.72,908.469,657.72M181.137,983.842C181.137,983.842,646.274,983.842,646.274,983.842C646.274,983.842,646.274,778.393,646.274,778.393C646.274,767.299,655.272,758.314,666.352,758.314C666.352,758.314,843.726,758.314,843.726,758.314C843.726,758.314,843.726,657.722,843.726,657.722C843.726,657.722,181.137,657.722,181.137,657.722C181.137,657.722,181.137,983.842,181.137,983.842C181.137,983.842,181.137,983.842,181.137,983.842M483.432,439.098C433.604,456.45,401.139,484.02,401.139,527.603C401.139,578.783,443.835,617.936,514.565,617.936C548.382,617.936,573.296,610.819,591.078,602.795C591.078,602.795,575.969,548.074,575.969,548.074C563.96,553.877,542.609,562.328,513.235,562.328C483.882,562.328,469.647,548.976,469.647,533.408C469.647,514.27,486.543,505.825,525.265,491.14C578.195,471.569,603.109,444.003,603.109,401.729C603.109,351.473,564.41,308.748,482.102,308.748C447.854,308.748,414.029,317.667,397.131,326.994C397.131,326.994,410.914,383.053,410.914,383.053C429.164,373.689,457.184,364.365,486.112,364.365C517.247,364.365,533.714,377.267,533.714,396.855C533.705,415.549,519.46,426.215,483.432,439.098C483.432,439.098,483.432,439.098,483.432,439.098M130.183,458.686C130.183,560.996,203.158,617.936,293.887,617.936C329.039,617.936,355.73,610.819,367.75,604.585C367.75,604.585,353.944,550.767,353.944,550.767C340.161,556.527,321.014,561.859,296.998,561.859C243.17,561.859,201.365,529.409,201.365,462.69C201.365,402.631,236.945,364.827,297.465,364.827C317.91,364.827,340.602,369.268,353.944,374.609C353.944,374.609,364.184,321.67,364.184,321.67C351.724,315.432,323.705,308.748,287.223,308.748C183.57,308.746,130.183,373.276,130.183,458.686C130.183,458.686,130.183,458.686,130.183,458.686M843.726,51.04C843.726,51.04,181.137,51.04,181.137,51.04C181.137,51.04,181.137,244.47,181.137,244.47C181.137,244.47,843.726,244.47,843.726,244.47C843.726,244.47,843.726,51.04,843.726,51.04C843.726,51.04,843.726,51.04,843.726,51.04M798.873,313.215C798.873,313.215,719.688,313.215,719.688,313.215C719.688,313.215,623.599,613.036,623.599,613.036C623.599,613.036,697.906,613.036,697.906,613.036C697.906,613.036,734.373,486.235,734.373,486.235C744.606,450.665,753.944,416.412,761.078,379.039C761.078,379.039,762.402,379.039,762.402,379.039C769.962,415.081,779.295,450.666,789.531,484.92C789.531,484.92,827.793,613.036,827.793,613.036C827.793,613.036,899.882,613.036,899.882,613.036C899.882,613.036,798.873,313.215,798.873,313.215C798.873,313.215,798.873,313.215,798.873,313.215" class="icon-csv-file-format-extension"/><glyph unicode="&#x0048;" d="M958.184,456.341C954.857,464.316,947.093,469.52,938.478,469.52C938.478,469.52,704.787,469.52,704.787,469.52C704.787,469.52,704.787,1002.673,704.787,1002.673C704.787,1014.445,695.232,1024,683.46,1024C683.46,1024,342.241,1024,342.241,1024C330.469,1024,320.914,1014.445,320.914,1002.673C320.914,1002.673,320.914,469.518,320.914,469.518C320.914,469.518,86.327,469.518,86.327,469.518C77.712,469.518,69.948,464.314,66.621,456.381C63.336,448.405,65.128,439.234,71.228,433.134C71.228,433.134,496.685,6.27,496.685,6.27C500.693,2.261,506.112,0,511.784,0C517.456,0,522.874,2.261,526.883,6.228C526.883,6.228,953.577,433.093,953.577,433.093C959.677,439.194,961.511,448.363,958.184,456.341C958.184,456.341,958.184,456.341,958.184,456.341" class="icon-down-arrow"/><glyph unicode="&#x0049;" d="M131.934,1024C131.934,1024,893.066,1024,893.066,1024C965.349,1024,1024.489,970.484,1024.489,892.576C1024.489,892.576,1024.489,131.424,1024.489,131.424C1024.489,53.516,965.349,0,893.066,0C893.066,0,131.934,0,131.934,0C59.63,0,0.5,53.516,0.5,131.424C0.5,131.424,0.5,892.576,0.5,892.576C0.5,970.484,59.63,1024,131.934,1024C131.934,1024,131.934,1024,131.934,1024C131.934,1024,131.934,1024,131.934,1024M746.439,910.229C721.08,910.229,700.357,889.496,700.357,864.126C700.357,864.126,700.357,753.783,700.357,753.783C700.357,728.423,721.08,707.679,746.439,707.679C746.439,707.679,862.176,707.679,862.176,707.679C887.536,707.679,908.279,728.423,908.279,753.783C908.279,753.783,908.279,864.126,908.279,864.126C908.279,889.496,887.536,910.229,862.176,910.229C862.176,910.229,746.439,910.229,746.439,910.229C746.439,910.229,746.439,910.229,746.439,910.229C746.439,910.229,746.439,910.229,746.439,910.229M908.763,590.954C908.763,590.954,818.638,590.954,818.638,590.954C827.165,563.113,831.78,533.622,831.78,503.111C831.78,332.786,689.254,194.717,513.473,194.717C337.701,194.717,195.196,332.786,195.196,503.111C195.196,533.643,199.801,563.124,208.339,590.954C208.339,590.954,114.292,590.954,114.292,590.954C114.292,590.954,114.292,158.402,114.292,158.402C114.292,136.018,132.607,117.692,155.002,117.692C155.002,117.692,868.074,117.692,868.074,117.692C890.469,117.692,908.784,136.008,908.784,158.402C908.784,158.402,908.784,590.954,908.784,590.954C908.784,590.954,908.763,590.954,908.763,590.954C908.763,590.954,908.763,590.954,908.763,590.954M513.462,713.493C399.891,713.493,307.81,624.283,307.81,514.224C307.81,404.164,399.891,314.954,513.462,314.954C627.044,314.954,719.135,404.164,719.135,514.224C719.135,624.283,627.054,713.493,513.462,713.493C513.462,713.493,513.462,713.493,513.462,713.493" class="icon-instagram-social-network-logo-of-photo-camera"/><glyph unicode="&#x004a;" d="M1024,921.6C1024,921.6,921.6,1024,921.6,1024C921.6,1024,512,614.4,512,614.4C512,614.4,102.4,1024,102.4,1024C102.4,1024,0,921.6,0,921.6C0,921.6,409.6,512,409.6,512C409.6,512,0,102.4,0,102.4C0,102.4,102.4,0,102.4,0C102.4,0,512,409.6,512,409.6C512,409.6,921.6,0,921.6,0C921.6,0,1024,102.4,1024,102.4C1024,102.4,614.4,512,614.4,512C614.4,512,1024,921.6,1024,921.6" class="icon-close-button"/><glyph unicode="&#x004b;" d="M513.285,444.109C513.285,444.109,513.504,444.109,513.504,444.109C521.226,444.109,528.858,446.349,535.032,450.429C535.032,450.429,536.707,451.505,536.707,451.505C537.071,451.742,537.453,451.958,537.836,452.214C537.836,452.214,557.342,468.352,557.342,468.352C557.342,468.352,1022.926,852.56,1022.926,852.56C1021.962,853.89,1020.321,854.8,1018.572,854.8C1018.572,854.8,5.409,854.8,5.409,854.8C4.153,854.8,2.987,854.345,2.058,853.58C2.058,853.58,489.169,452.089,489.169,452.089C495.308,447.005,504.067,444.109,513.285,444.109C513.285,444.109,513.285,444.109,513.285,444.109M0,800.359C0,800.359,0,230.851,0,230.851C0,230.851,348.946,512.737,348.946,512.737C348.946,512.737,0,800.359,0,800.359C0,800.359,0,800.359,0,800.359M675.418,510.825C675.418,510.825,1024,230.705,1024,230.705C1024,230.705,1024,798.465,1024,798.465C1024,798.465,675.418,510.825,675.418,510.825C675.418,510.825,675.418,510.825,675.418,510.825M564.59,419.394C550.694,407.993,532.518,401.708,513.431,401.708C494.271,401.708,476.111,407.956,462.252,419.304C462.252,419.304,382.332,485.218,382.332,485.218C382.332,485.218,0,176.41,0,176.41C0,176.41,0,175.428,0,175.428C0,172.495,2.513,170,5.481,170C5.481,170,1018.591,170,1018.591,170C1021.504,170,1023.998,172.495,1023.998,175.446C1023.998,175.446,1023.998,176.356,1023.998,176.356C1023.998,176.356,641.996,483.285,641.996,483.285C641.996,483.285,564.59,419.394,564.59,419.394C564.59,419.394,564.59,419.394,564.59,419.394" class="icon-email-filled-closed-envelope"/><glyph unicode="&#x004c;" d="M997.205,1022.792C997.205,1022.792,546.178,893.288,546.178,893.288C536.313,883.422,536.313,867.428,546.178,857.56C546.178,857.56,728.885,784.478,728.885,784.478C728.885,784.478,552.447,608.043,552.447,608.043C538.502,594.097,538.502,571.491,552.447,557.548C552.447,557.548,558.76,551.237,558.76,551.237C572.705,537.292,595.311,537.292,609.252,551.237C609.252,551.237,785.688,727.673,785.688,727.673C785.688,727.673,858.772,544.966,858.772,544.966C868.636,535.101,884.636,535.101,894.495,544.966C894.495,544.966,1024,969.203,1024,995.996C1024,1022.788,997.205,1022.792,997.205,1022.792C997.205,1022.792,997.205,1022.792,997.205,1022.792M26.795,2C26.795,2,477.822,131.505,477.822,131.505C487.687,141.37,487.687,157.362,477.822,167.23C477.822,167.23,295.115,240.31,295.115,240.31C295.115,240.31,471.553,416.748,471.553,416.748C485.498,430.689,485.498,453.299,471.553,467.24C471.553,467.24,465.24,473.553,465.24,473.553C451.295,487.498,428.689,487.498,414.748,473.553C414.748,473.553,238.312,297.111,238.312,297.111C238.312,297.111,165.228,479.822,165.228,479.822C155.364,489.685,139.366,489.685,129.505,479.822C129.505,479.822,0,55.585,0,28.793C0,2.002,26.795,2,26.795,2C26.795,2,26.795,2,26.795,2" class="icon-expand"/><glyph unicode="&#x004d;" d="M768.279,1023.787C768.279,1023.787,635.489,1024,635.489,1024C486.304,1024,389.894,925.087,389.894,771.992C389.894,771.992,389.894,655.8,389.894,655.8C389.894,655.8,256.38,655.8,256.38,655.8C244.843,655.8,235.5,646.446,235.5,634.909C235.5,634.909,235.5,466.56,235.5,466.56C235.5,455.022,244.853,445.68,256.38,445.68C256.38,445.68,389.894,445.68,389.894,445.68C389.894,445.68,389.894,20.88,389.894,20.88C389.894,9.343,399.237,0,410.774,0C410.774,0,584.972,0,584.972,0C596.509,0,605.852,9.353,605.852,20.88C605.852,20.88,605.852,445.68,605.852,445.68C605.852,445.68,761.961,445.68,761.961,445.68C773.499,445.68,782.841,455.022,782.841,466.56C782.841,466.56,782.905,634.909,782.905,634.909C782.905,640.449,780.7,645.754,776.79,649.674C772.881,653.595,767.554,655.8,762.015,655.8C762.015,655.8,605.852,655.8,605.852,655.8C605.852,655.8,605.852,754.298,605.852,754.298C605.852,801.64,617.134,825.673,678.804,825.673C678.804,825.673,768.257,825.705,768.257,825.705C779.784,825.705,789.127,835.058,789.127,846.585C789.127,846.585,789.127,1002.907,789.127,1002.907C789.127,1014.423,779.795,1023.766,768.279,1023.787C768.279,1023.787,768.279,1023.787,768.279,1023.787" class="icon-facebook-logo"/><glyph unicode="&#x004e;" d="M936.85,800.396C936.85,800.396,936.85,989.867,936.85,989.867C936.85,1008.719,921.563,1024,902.717,1024C902.717,1024,452.157,1024,452.157,1024C433.308,1024,418.023,1008.716,418.023,989.867C418.023,989.867,418.023,800.43,418.023,800.43C418.023,800.43,402.663,800.43,402.663,800.43C402.663,800.43,402.663,168.963,402.663,168.963C402.663,168.963,505.06,168.963,505.06,168.963C505.06,168.963,505.06,95.577,505.06,95.577C505.06,80.52,492.81,68.27,477.753,68.27C477.753,68.27,262.713,68.27,262.713,68.27C247.912,68.27,235.407,78.431,235.407,90.46C235.407,90.46,235.407,112.643,235.407,112.643C235.407,112.643,313.913,112.643,313.913,112.643C332.763,112.643,348.047,127.928,348.047,146.777C348.047,146.777,348.047,822.613,348.047,822.613C348.047,841.466,332.759,856.747,313.913,856.747C313.913,856.747,88.633,856.747,88.633,856.747C69.784,856.747,54.5,841.463,54.5,822.613C54.5,822.613,54.5,146.773,54.5,146.773C54.5,127.921,69.788,112.64,88.633,112.64C88.633,112.64,167.14,112.64,167.14,112.64C167.14,112.64,167.14,90.457,167.14,90.457C167.14,40.577,210.014,0,262.713,0C262.713,0,477.75,0,477.75,0C530.45,0,573.327,42.874,573.327,95.573C573.327,95.573,573.327,168.96,573.327,168.96C573.327,168.96,936.278,168.96,936.278,168.96C955.127,168.96,970.411,184.244,970.411,203.093C970.411,203.093,970.411,766.293,970.411,766.293C970.411,784.949,955.427,800.092,936.85,800.396C936.85,800.396,936.85,800.396,936.85,800.396M539.193,344.747C539.193,344.747,482.877,344.747,482.877,344.747C467.793,344.747,455.57,356.973,455.57,372.053C455.57,387.134,467.793,399.36,482.877,399.36C482.877,399.36,539.193,399.36,539.193,399.36C554.278,399.36,566.5,387.134,566.5,372.053C566.5,356.973,554.278,344.747,539.193,344.747C539.193,344.747,539.193,344.747,539.193,344.747M539.193,457.387C539.193,457.387,482.877,457.387,482.877,457.387C467.793,457.387,455.57,469.613,455.57,484.693C455.57,499.774,467.793,512,482.877,512C482.877,512,539.193,512,539.193,512C554.278,512,566.5,499.774,566.5,484.693C566.5,469.613,554.278,457.387,539.193,457.387C539.193,457.387,539.193,457.387,539.193,457.387M539.193,570.027C539.193,570.027,482.877,570.027,482.877,570.027C467.793,570.027,455.57,582.253,455.57,597.333C455.57,612.414,467.793,624.64,482.877,624.64C482.877,624.64,539.193,624.64,539.193,624.64C554.278,624.64,566.5,612.414,566.5,597.333C566.5,582.253,554.278,570.027,539.193,570.027C539.193,570.027,539.193,570.027,539.193,570.027M708.157,344.747C708.157,344.747,651.833,344.747,651.833,344.747C636.756,344.747,624.527,356.973,624.527,372.053C624.527,387.134,636.756,399.36,651.833,399.36C651.833,399.36,708.157,399.36,708.157,399.36C723.234,399.36,735.463,387.134,735.463,372.053C735.463,356.973,723.234,344.747,708.157,344.747C708.157,344.747,708.157,344.747,708.157,344.747M708.157,457.387C708.157,457.387,651.833,457.387,651.833,457.387C636.756,457.387,624.527,469.613,624.527,484.693C624.527,499.774,636.756,512,651.833,512C651.833,512,708.157,512,708.157,512C723.234,512,735.463,499.774,735.463,484.693C735.463,469.613,723.234,457.387,708.157,457.387C708.157,457.387,708.157,457.387,708.157,457.387M708.157,570.027C708.157,570.027,651.833,570.027,651.833,570.027C636.756,570.027,624.527,582.253,624.527,597.333C624.527,612.414,636.756,624.64,651.833,624.64C651.833,624.64,708.157,624.64,708.157,624.64C723.234,624.64,735.463,612.414,735.463,597.333C735.463,582.253,723.234,570.027,708.157,570.027C708.157,570.027,708.157,570.027,708.157,570.027M564.797,851.627C549.713,851.627,537.49,863.853,537.49,878.933C537.49,894.014,549.713,906.24,564.797,906.24C564.797,906.24,790.077,906.24,790.077,906.24C805.154,906.24,817.383,894.014,817.383,878.933C817.383,863.853,805.154,851.627,790.077,851.627C790.077,851.627,564.797,851.627,564.797,851.627C564.797,851.627,564.797,851.627,564.797,851.627M877.113,344.747C877.113,344.747,820.797,344.747,820.797,344.747C805.713,344.747,793.49,356.973,793.49,372.053C793.49,387.134,805.713,399.36,820.797,399.36C820.797,399.36,877.113,399.36,877.113,399.36C892.198,399.36,904.42,387.134,904.42,372.053C904.42,356.973,892.198,344.747,877.113,344.747C877.113,344.747,877.113,344.747,877.113,344.747M877.113,457.387C877.113,457.387,820.797,457.387,820.797,457.387C805.713,457.387,793.49,469.613,793.49,484.693C793.49,499.774,805.713,512,820.797,512C820.797,512,877.113,512,877.113,512C892.198,512,904.42,499.774,904.42,484.693C904.42,469.613,892.198,457.387,877.113,457.387C877.113,457.387,877.113,457.387,877.113,457.387M877.113,570.027C877.113,570.027,820.797,570.027,820.797,570.027C805.713,570.027,793.49,582.253,793.49,597.333C793.49,612.414,805.713,624.64,820.797,624.64C820.797,624.64,877.113,624.64,877.113,624.64C892.198,624.64,904.42,612.414,904.42,597.333C904.42,582.253,892.198,570.027,877.113,570.027C877.113,570.027,877.113,570.027,877.113,570.027" class="icon-fax"/><glyph unicode="&#x004f;" d="M1022.771,546.133C1005.978,801.724,801.724,1006.046,546.133,1022.839C546.133,1022.839,546.133,1024,546.133,1024C546.133,1024,512,1024,512,1024C512,1024,477.867,1024,477.867,1024C477.867,1024,477.867,1022.839,477.867,1022.839C222.276,1006.046,17.954,801.724,1.161,546.133C1.161,546.133,0,546.133,0,546.133C0,546.133,0,512,0,512C0,512,0,477.867,0,477.867C0,477.867,1.161,477.867,1.161,477.867C17.954,222.276,222.276,18.022,477.867,1.229C477.867,1.229,477.867,0,477.867,0C477.867,0,512,0,512,0C512,0,546.133,0,546.133,0C546.133,0,546.133,1.229,546.133,1.229C801.724,18.022,1005.978,222.276,1022.771,477.867C1022.771,477.867,1024,477.867,1024,477.867C1024,477.867,1024,512,1024,512C1024,512,1024,546.133,1024,546.133C1024,546.133,1022.771,546.133,1022.771,546.133C1022.771,546.133,1022.771,546.133,1022.771,546.133M320.512,912.384C287.539,868.557,260.164,813.602,240.23,750.933C240.23,750.933,137.967,750.933,137.967,750.933C182.477,820.361,245.692,876.544,320.512,912.384C320.512,912.384,320.512,912.384,320.512,912.384M102.263,682.667C102.263,682.667,222.276,682.667,222.276,682.667C213.129,639.522,207.326,593.715,205.483,546.133C205.483,546.133,69.564,546.133,69.564,546.133C73.182,594.193,84.514,640.137,102.263,682.667C102.263,682.667,102.263,682.667,102.263,682.667M69.564,477.867C69.564,477.867,205.483,477.867,205.483,477.867C207.326,430.285,213.129,384.478,222.276,341.333C222.276,341.333,102.263,341.333,102.263,341.333C84.514,383.863,73.182,429.807,69.564,477.867C69.564,477.867,69.564,477.867,69.564,477.867M137.967,273.067C137.967,273.067,240.162,273.067,240.162,273.067C260.096,210.398,287.471,155.443,320.512,111.616C245.692,147.456,182.477,203.571,137.967,273.067C137.967,273.067,137.967,273.067,137.967,273.067M477.867,72.636C407.689,91.409,347.273,166.775,310.613,273.067C310.613,273.067,477.867,273.067,477.867,273.067C477.867,273.067,477.867,72.636,477.867,72.636C477.867,72.636,477.867,72.636,477.867,72.636M477.867,341.333C477.867,341.333,291.43,341.333,291.43,341.333C281.805,383.863,275.729,429.807,273.749,477.867C273.749,477.867,477.867,477.867,477.867,477.867C477.867,477.867,477.867,341.333,477.867,341.333C477.867,341.333,477.867,341.333,477.867,341.333M477.867,546.133C477.867,546.133,273.749,546.133,273.749,546.133C275.729,594.193,281.805,640.137,291.43,682.667C291.43,682.667,477.867,682.667,477.867,682.667C477.867,682.667,477.867,546.133,477.867,546.133C477.867,546.133,477.867,546.133,477.867,546.133M477.867,750.933C477.867,750.933,310.613,750.933,310.613,750.933C347.273,857.225,407.689,932.591,477.867,951.296C477.867,951.296,477.867,750.933,477.867,750.933C477.867,750.933,477.867,750.933,477.867,750.933M886.033,750.933C886.033,750.933,783.906,750.933,783.906,750.933C763.904,813.602,736.597,868.557,703.488,912.384C778.24,876.544,841.523,820.361,886.033,750.933C886.033,750.933,886.033,750.933,886.033,750.933M546.133,951.296C616.243,932.591,676.727,857.225,713.387,750.933C713.387,750.933,546.133,750.933,546.133,750.933C546.133,750.933,546.133,951.296,546.133,951.296C546.133,951.296,546.133,951.296,546.133,951.296M546.133,682.667C546.133,682.667,732.501,682.667,732.501,682.667C742.195,640.137,748.134,594.193,750.251,546.133C750.251,546.133,546.133,546.133,546.133,546.133C546.133,546.133,546.133,682.667,546.133,682.667C546.133,682.667,546.133,682.667,546.133,682.667M546.133,477.867C546.133,477.867,750.251,477.867,750.251,477.867C748.271,429.807,742.195,383.863,732.501,341.333C732.501,341.333,546.133,341.333,546.133,341.333C546.133,341.333,546.133,477.867,546.133,477.867C546.133,477.867,546.133,477.867,546.133,477.867M546.133,72.636C546.133,72.636,546.133,273.067,546.133,273.067C546.133,273.067,713.387,273.067,713.387,273.067C676.727,166.775,616.243,91.409,546.133,72.636C546.133,72.636,546.133,72.636,546.133,72.636M703.488,111.616C736.461,155.511,763.904,210.398,783.906,273.067C783.906,273.067,886.033,273.067,886.033,273.067C841.523,203.571,778.24,147.456,703.488,111.616C703.488,111.616,703.488,111.616,703.488,111.616M921.737,341.333C921.737,341.333,801.724,341.333,801.724,341.333C810.871,384.478,816.674,430.285,818.517,477.867C818.517,477.867,954.368,477.867,954.368,477.867C950.818,429.807,939.486,383.863,921.737,341.333C921.737,341.333,921.737,341.333,921.737,341.333M818.517,546.133C816.674,593.715,810.871,639.522,801.724,682.667C801.724,682.667,921.737,682.667,921.737,682.667C939.486,640.137,950.818,594.193,954.436,546.133C954.436,546.133,818.517,546.133,818.517,546.133C818.517,546.133,818.517,546.133,818.517,546.133" class="icon-grid-world"/><glyph unicode="&#x0050;" d="M890.051,562.276C890.051,562.276,840.022,630.726,840.022,630.726C836.882,635.122,836.672,641.193,839.812,645.589C839.812,645.589,888.795,714.667,888.795,714.667C893.191,720.947,891.098,729.739,884.399,733.297C884.399,733.297,809.669,773.279,809.669,773.279C804.854,775.791,802.133,781.234,803.18,786.676C803.18,786.676,817.205,870.198,817.205,870.198C818.461,877.734,812.809,884.851,805.064,885.061C805.064,885.061,720.495,888.619,720.495,888.619C715.053,888.829,710.238,892.596,708.773,897.83C708.773,897.83,685.328,979.468,685.328,979.468C683.235,986.794,675.071,990.772,667.954,987.632C667.954,987.632,590.083,954.139,590.083,954.139C585.059,952.046,579.198,953.302,575.43,957.279C575.43,957.279,518.912,1020.287,518.912,1020.287C513.678,1025.939,504.887,1025.939,499.653,1020.078C499.653,1020.078,443.972,956.232,443.972,956.232C440.413,952.046,434.552,950.79,429.528,952.883C429.528,952.883,351.239,985.12,351.239,985.12C344.122,988.05,336.168,984.073,334.074,976.747C334.074,976.747,311.676,895.108,311.676,895.108C310.211,889.875,305.606,886.107,300.163,885.689C300.163,885.689,215.594,880.874,215.594,880.874C207.849,880.455,202.407,873.338,203.663,865.802C203.663,865.802,218.944,782.49,218.944,782.49C219.99,777.047,217.269,771.604,212.664,769.093C212.664,769.093,138.561,728.064,138.561,728.064C131.863,724.296,129.979,715.504,134.375,709.434C134.375,709.434,184.404,640.983,184.404,640.983C187.544,636.588,187.754,630.517,184.614,626.121C184.614,626.121,135.631,557.043,135.631,557.043C131.235,550.763,133.328,541.971,140.027,538.412C140.027,538.412,214.757,498.431,214.757,498.431C219.572,495.919,222.293,490.476,221.246,485.034C221.246,485.034,207.221,401.511,207.221,401.511C205.965,393.976,211.617,386.858,219.362,386.649C219.362,386.649,303.931,383.091,303.931,383.091C309.374,382.881,314.188,379.113,315.653,373.88C315.653,373.88,339.308,292.451,339.308,292.451C341.401,285.125,349.565,281.147,356.682,284.287C356.682,284.287,434.552,317.78,434.552,317.78C439.576,319.873,445.437,318.617,449.205,314.64C449.205,314.64,505.724,251.632,505.724,251.632C510.957,245.98,519.749,245.98,524.982,251.841C524.982,251.841,580.664,315.687,580.664,315.687C584.222,319.873,590.083,321.129,595.107,319.036C595.107,319.036,673.396,286.799,673.396,286.799C680.513,283.869,688.468,287.846,690.561,295.173C690.561,295.173,712.959,376.811,712.959,376.811C714.425,382.044,719.03,385.812,724.472,386.23C724.472,386.23,809.041,391.045,809.041,391.045C816.786,391.464,822.229,398.581,820.973,406.117C820.973,406.117,805.692,489.429,805.692,489.429C804.645,494.872,807.366,500.315,811.972,502.827C811.972,502.827,886.074,543.855,886.074,543.855C892.773,547.204,894.656,555.996,890.051,562.276C890.051,562.276,890.051,562.276,890.051,562.276M512.422,405.907C385.779,405.907,282.58,509.106,282.58,635.75C282.58,762.394,385.779,865.593,512.422,865.593C639.066,865.593,742.265,762.394,742.265,635.75C742.265,508.897,639.066,405.907,512.422,405.907C512.422,405.907,512.422,405.907,512.422,405.907M719.448,257.284C707.307,244.934,690.352,237.607,672.14,237.607C665.651,237.607,659.162,238.654,653.091,240.328C653.091,240.328,599.084,256.656,599.084,256.656C599.084,256.656,557.428,218.558,557.428,218.558C555.963,217.302,554.707,216.046,553.241,215C553.241,215,620.227,7.346,620.227,7.346C622.529,0.019,631.949,-1.656,636.764,4.415C636.764,4.415,685.537,67.004,685.537,67.004C687.84,70.144,692.026,71.4,695.585,70.354C695.585,70.354,771.571,48.165,771.571,48.165C778.898,46.071,785.596,52.979,783.294,60.096C783.294,60.096,719.448,257.284,719.448,257.284C719.448,257.284,719.448,257.284,719.448,257.284M425.97,256.656C425.97,256.656,371.963,240.328,371.963,240.328C365.683,238.444,359.403,237.607,352.914,237.607C334.702,237.607,317.956,244.934,305.606,257.284C305.606,257.284,241.76,59.887,241.76,59.887C239.458,52.561,246.156,45.862,253.483,47.955C253.483,47.955,329.469,70.144,329.469,70.144C333.237,71.191,337.214,69.935,339.517,66.795C339.517,66.795,388.291,4.206,388.291,4.206C392.896,-1.865,402.525,-0.19,404.827,7.136C404.827,7.136,471.813,214.79,471.813,214.79C470.347,215.837,468.882,217.093,467.626,218.349C467.626,218.349,425.97,256.656,425.97,256.656C425.97,256.656,425.97,256.656,425.97,256.656M648.695,692.897C648.695,692.897,562.033,699.177,562.033,699.177C562.033,699.177,529.378,779.559,529.378,779.559C523.307,794.631,501.747,794.631,495.676,779.559C495.676,779.559,463.021,699.177,463.021,699.177C463.021,699.177,376.359,692.897,376.359,692.897C360.031,691.641,353.542,671.336,365.892,660.87C365.892,660.87,432.25,604.77,432.25,604.77C432.25,604.77,411.526,520.41,411.526,520.41C407.549,504.501,424.923,491.941,438.739,500.524C438.739,500.524,512.422,546.367,512.422,546.367C512.422,546.367,586.106,500.524,586.106,500.524C599.922,491.941,617.296,504.501,613.319,520.41C613.319,520.41,592.595,604.77,592.595,604.77C592.595,604.77,658.952,660.87,658.952,660.87C671.512,671.336,665.023,691.641,648.695,692.897C648.695,692.897,648.695,692.897,648.695,692.897" class="icon-medal"/><glyph unicode="&#x0051;" d="M966.44,592.565C966.44,592.565,968.038,592.215,968.038,592.215C968.038,592.215,282.824,592.215,282.824,592.215C282.824,592.215,498.23,808.096,498.23,808.096C508.778,818.635,514.564,832.913,514.564,847.898C514.564,862.884,508.778,877.062,498.23,887.626C498.23,887.626,464.713,921.16,464.713,921.16C454.173,931.7,440.129,937.528,425.152,937.528C410.166,937.528,396.113,931.742,385.574,921.202C385.574,921.202,16.326,551.987,16.326,551.987C5.745,541.406,-0.041,527.312,0,512.318C-0.041,497.241,5.745,483.138,16.326,472.573C16.326,472.573,385.574,103.326,385.574,103.326C396.113,92.794,410.158,87,425.152,87C440.129,87,454.173,92.803,464.713,103.326C464.713,103.326,498.23,136.86,498.23,136.86C508.778,147.383,514.564,161.436,514.564,176.421C514.564,191.398,508.778,204.71,498.23,215.241C498.23,215.241,280.393,432.329,280.393,432.329C280.393,432.329,967.205,432.329,967.205,432.329C998.067,432.329,1024,458.928,1024,489.773C1024,489.773,1024,537.202,1024,537.202C1024,568.047,997.301,592.565,966.44,592.565C966.44,592.565,966.44,592.565,966.44,592.565" class="icon-left-arrow"/><glyph unicode="&#x0052;" d="M315.967,1024C315.967,1024,196.5,904.533,196.5,904.533C196.5,904.533,589.033,512,589.033,512C589.033,512,196.5,119.467,196.5,119.467C196.5,119.467,315.967,0,315.967,0C315.967,0,827.967,512,827.967,512C827.967,512,315.967,1024,315.967,1024" class="icon-keyboard-right-arrow-button"/><glyph unicode="&#x0053;" d="M827.967,119.467C827.967,119.467,435.433,512,435.433,512C435.433,512,827.967,904.533,827.967,904.533C827.967,904.533,708.5,1024,708.5,1024C708.5,1024,196.5,512,196.5,512C196.5,512,708.5,0,708.5,0C708.5,0,827.967,119.467,827.967,119.467" class="icon-left-arrow-key"/><glyph unicode="&#x0054;" d="M698.857,578.048C701.487,581.738,702.511,584.104,702.917,585.375C700.746,586.522,697.868,588.853,682.172,588.853C673.257,588.853,662.063,588.465,650.199,586.946C664.588,575.876,668.101,570.28,677.511,570.28C681.625,570.262,693.419,570.439,698.857,578.048C698.857,578.048,698.857,578.048,698.857,578.048M362.808,447.841C365.439,448.671,380.799,455.68,409.418,508.504C371.671,487.3,356.311,469.875,355.216,460.058C355.022,458.434,354.545,454.162,362.808,447.841C362.808,447.841,362.808,447.841,362.808,447.841M909.483,335.448C909.483,335.448,909.483,777.216,909.483,777.216C909.483,790.74,907.858,800.75,899.772,808.854C899.772,808.854,694.319,1014.29,694.319,1014.29C688.158,1020.451,679.612,1024,670.873,1024C670.873,1024,158.485,1024,158.485,1024C137.546,1024,115,1007.828,115,972.341C115,972.341,115,335.448,115,335.448C115,335.448,909.483,335.448,909.483,335.448C909.483,335.448,909.483,335.448,909.483,335.448M662.31,964.131C662.31,972.217,672.074,976.26,677.794,970.54C677.794,970.54,856.023,792.311,856.023,792.311C861.743,786.591,857.7,776.828,849.614,776.828C849.614,776.828,662.31,776.828,662.31,776.828C662.31,776.828,662.31,964.131,662.31,964.131C662.31,964.131,662.31,964.131,662.31,964.131M325.662,463.36C328.875,492.103,364.415,522.187,431.328,552.836C457.881,611.028,483.146,682.726,498.206,742.63C480.586,780.977,463.46,830.729,475.942,859.913C480.321,870.135,485.776,877.974,495.963,881.364C499.989,882.706,510.158,884.401,513.901,884.401C522.799,884.401,530.62,872.942,536.164,865.88C541.372,859.242,553.184,845.171,529.579,745.79C553.378,696.638,587.099,646.568,619.408,612.281C642.554,616.466,662.469,618.602,678.694,618.602C706.342,618.602,723.097,612.158,729.93,598.881C735.579,587.9,733.266,575.064,723.044,560.746C713.21,546.993,699.651,539.719,683.85,539.719C662.381,539.719,637.381,553.278,609.504,580.061C559.416,569.591,500.907,550.912,453.644,530.238C438.884,498.918,424.742,473.688,411.572,455.186C393.51,429.798,377.903,417.986,362.455,417.986C362.455,417.986,362.455,417.986,362.455,417.986C356.311,417.986,350.414,419.981,345.382,423.742C326.968,437.566,324.496,452.908,325.662,463.36C325.662,463.36,325.662,463.36,325.662,463.36M374.919,214.369C372.412,217.83,368.917,220.725,364.415,223.055C359.913,225.386,353.945,226.551,346.548,226.551C346.548,226.551,324.832,226.551,324.832,226.551C324.832,226.551,324.832,156.072,324.832,156.072C324.832,156.072,351.385,156.072,351.385,156.072C354.916,156.072,358.412,156.672,361.89,157.89C365.35,159.091,368.528,161.068,371.424,163.805C374.319,166.541,376.65,170.355,378.415,175.263C380.181,180.171,381.063,186.244,381.063,193.483C381.063,196.378,380.657,199.733,379.863,203.494C379.051,207.272,377.409,210.891,374.919,214.369C374.919,214.369,374.919,214.369,374.919,214.369M518.297,703.135C505.656,659.456,489.007,612.299,471.087,569.591C507.986,583.91,548.099,596.409,585.775,605.255C561.941,632.938,538.124,667.507,518.297,703.135C518.297,703.135,518.297,703.135,518.297,703.135M115,300.138C115,300.138,115,35.31,115,35.31C115,17.496,136.539,0,158.485,0C158.485,0,865.998,0,865.998,0C887.943,0,909.483,17.496,909.483,35.31C909.483,35.31,909.483,300.138,909.483,300.138C909.483,300.138,115,300.138,115,300.138C115,300.138,115,300.138,115,300.138M404.474,168.978C401.42,161.651,397.147,155.489,391.674,150.51C386.201,145.532,379.598,141.665,371.883,138.929C364.167,136.192,355.622,134.833,346.3,134.833C346.3,134.833,324.814,134.833,324.814,134.833C324.814,134.833,324.814,70.621,324.814,70.621C324.814,70.621,295.842,70.621,295.842,70.621C295.842,70.621,295.842,248.514,295.842,248.514C295.842,248.514,347.007,248.514,347.007,248.514C354.563,248.514,362.049,247.314,369.446,244.895C376.844,242.476,383.482,238.857,389.361,234.037C395.241,229.217,399.99,223.373,403.609,216.541C407.228,209.708,409.047,202.028,409.047,193.483C409.065,184.461,407.529,176.305,404.474,168.978C404.474,168.978,404.474,168.978,404.474,168.978M582.015,126.976C578.872,116.595,574.9,107.908,570.062,100.899C565.225,93.89,559.804,88.382,553.766,84.356C547.728,80.331,541.902,77.33,536.27,75.299C530.638,73.287,525.483,71.998,520.822,71.433C516.161,70.903,512.7,70.621,510.441,70.621C510.441,70.621,443.104,70.621,443.104,70.621C443.104,70.621,443.104,248.514,443.104,248.514C443.104,248.514,496.687,248.514,496.687,248.514C511.659,248.514,524.812,246.131,536.146,241.399C547.481,236.668,556.909,230.329,564.395,222.455C571.881,214.581,577.46,205.594,581.167,195.549C584.857,185.503,586.711,175.157,586.711,164.529C586.729,149.875,585.157,137.357,582.015,126.976C582.015,126.976,582.015,126.976,582.015,126.976M739.993,226.551C739.993,226.551,658.161,226.551,658.161,226.551C658.161,226.551,658.161,170.549,658.161,170.549C658.161,170.549,732.507,170.549,732.507,170.549C732.507,170.549,732.507,150.758,732.507,150.758C732.507,150.758,658.161,150.758,658.161,150.758C658.161,150.758,658.161,70.621,658.161,70.621C658.161,70.621,628.713,70.621,628.713,70.621C628.713,70.621,628.713,248.514,628.713,248.514C628.713,248.514,739.993,248.514,739.993,248.514C739.993,248.514,739.993,226.551,739.993,226.551C739.993,226.551,739.993,226.551,739.993,226.551M543.403,206.883C538.336,212.762,531.45,217.512,522.764,221.131C514.078,224.75,502.814,226.569,488.972,226.569C488.972,226.569,472.076,226.569,472.076,226.569C472.076,226.569,472.076,91.878,472.076,91.878C472.076,91.878,500.801,91.878,500.801,91.878C520.433,91.878,534.593,98.145,543.279,110.698C551.966,123.251,556.309,141.436,556.309,165.252C556.309,172.65,555.426,179.977,553.66,187.215C551.877,194.454,548.47,201.004,543.403,206.883C543.403,206.883,543.403,206.883,543.403,206.883M507.58,852.533C505.85,851.95,484.099,821.513,509.275,795.754C526.03,833.095,508.34,852.78,507.58,852.533C507.58,852.533,507.58,852.533,507.58,852.533" class="icon-pdf"/><glyph unicode="&#x0055;" d="M512,216.821C512,216.821,828.416,26,828.416,26C828.416,26,744.703,385.884,744.703,385.884C744.703,385.884,1024,627.907,1024,627.907C1024,627.907,655.822,659.499,655.822,659.499C655.822,659.499,512,998.8,512,998.8C512,998.8,368.18,659.499,368.18,659.499C368.18,659.499,0,627.907,0,627.907C0,627.907,279.297,385.884,279.297,385.884C279.297,385.884,195.584,26,195.584,26C195.584,26,512,216.821,512,216.821" class="icon-mark-as-favorite-star"/><glyph unicode="&#x0056;" d="M298.597,499.312C298.597,526.887,279.45,543.344,245.66,543.344C231.877,543.344,222.539,542.014,217.642,540.681C217.642,540.681,217.642,452.138,217.642,452.138C223.431,450.823,230.548,450.373,240.308,450.373C276.358,450.373,298.597,468.609,298.597,499.312C298.597,499.312,298.597,499.312,298.597,499.312M507.735,542.455C492.593,542.455,482.829,541.122,477.025,539.787C477.025,539.787,477.025,343.608,477.025,343.608C482.818,342.253,492.162,342.253,500.617,342.253C561.999,341.824,602.039,375.617,602.039,447.244C602.489,509.549,566,542.455,507.735,542.455C507.735,542.455,507.735,542.455,507.735,542.455M908.469,657.72C908.469,657.72,883.88,657.72,883.88,657.72C883.88,657.72,883.88,776.361,883.88,776.361C883.88,777.101,883.763,777.846,883.664,778.596C883.625,783.307,882.127,787.934,878.901,791.6C878.901,791.6,681.469,1017.132,681.469,1017.132C681.41,1017.19,681.352,1017.211,681.311,1017.274C680.134,1018.588,678.762,1019.681,677.312,1020.628C676.883,1020.916,676.45,1021.157,676,1021.407C674.743,1022.093,673.41,1022.661,672.038,1023.072C671.666,1023.176,671.332,1023.329,670.96,1023.426C669.469,1023.779,667.92,1024,666.351,1024C666.351,1024,181.136,1024,181.136,1024C158.979,1024,140.979,1005.98,140.979,983.841C140.979,983.841,140.979,657.729,140.979,657.729C140.979,657.729,116.396,657.729,116.396,657.729C84.7,657.729,59,632.04,59,600.333C59,600.333,59,301.862,59,301.862C59,270.177,84.7,244.471,116.396,244.471C116.396,244.471,140.981,244.471,140.981,244.471C140.981,244.471,140.981,40.159,140.981,40.159C140.981,18.022,158.981,0,181.138,0C181.138,0,843.725,0,843.725,0C865.861,0,883.882,18.02,883.882,40.159C883.882,40.159,883.882,244.471,883.882,244.471C883.882,244.471,908.47,244.471,908.47,244.471C940.157,244.471,965.863,270.177,965.863,301.862C965.863,301.862,965.863,600.324,965.863,600.324C965.861,632.029,940.155,657.72,908.469,657.72C908.469,657.72,908.469,657.72,908.469,657.72M181.136,983.834C181.136,983.834,646.273,983.834,646.273,983.834C646.273,983.834,646.273,778.378,646.273,778.378C646.273,767.285,655.273,758.3,666.351,758.3C666.351,758.3,843.723,758.3,843.723,758.3C843.723,758.3,843.723,657.707,843.723,657.707C843.723,657.707,181.136,657.707,181.136,657.707C181.136,657.707,181.136,983.834,181.136,983.834C181.136,983.834,181.136,983.834,181.136,983.834M674.096,449.492C674.096,392.09,653.194,352.512,624.235,328.031C592.684,301.786,544.628,289.335,485.924,289.335C450.787,289.335,425.881,291.561,408.955,293.777C408.955,293.777,408.955,588.29,408.955,588.29C433.865,592.285,466.361,594.51,500.617,594.51C557.528,594.51,594.461,584.27,623.391,562.485C654.518,539.348,674.096,502.432,674.096,449.492C674.096,449.492,674.096,449.492,674.096,449.492M150.461,292.442C150.461,292.442,150.461,588.29,150.461,588.29C171.359,591.829,200.735,594.51,242.108,594.51C283.921,594.51,313.733,586.501,333.745,570.476C352.879,555.359,365.75,530.441,365.75,501.079C365.75,471.707,355.989,446.796,338.181,429.903C315.05,408.099,280.799,398.305,240.75,398.305C231.868,398.305,223.832,398.757,217.632,399.649C217.632,399.649,217.632,292.434,217.632,292.434C217.632,292.434,150.461,292.434,150.461,292.434C150.461,292.434,150.461,292.442,150.461,292.442C150.461,292.442,150.461,292.442,150.461,292.442M843.725,51.029C843.725,51.029,181.136,51.029,181.136,51.029C181.136,51.029,181.136,244.471,181.136,244.471C181.136,244.471,843.723,244.471,843.723,244.471C843.723,244.471,843.723,51.029,843.723,51.029C843.723,51.029,843.725,51.029,843.725,51.029M901.91,536.677C901.91,536.677,786.665,536.677,786.665,536.677C786.665,536.677,786.665,468.167,786.665,468.167C786.665,468.167,894.332,468.167,894.332,468.167C894.332,468.167,894.332,413,894.332,413C894.332,413,786.665,413,786.665,413C786.665,413,786.665,292.44,786.665,292.44C786.665,292.44,718.635,292.44,718.635,292.44C718.635,292.44,718.635,592.285,718.635,592.285C718.635,592.285,901.91,592.285,901.91,592.285C901.91,592.285,901.91,536.677,901.91,536.677C901.91,536.677,901.91,536.677,901.91,536.677" class="icon-pdf-file-format-symbol"/><glyph unicode="&#x0057;" d="M636.748,851.454C636.748,851.454,845.053,643.151,845.053,643.151C845.053,643.151,317.776,115.87,317.776,115.87C317.776,115.87,109.59,324.177,109.59,324.177C109.59,324.177,636.748,851.454,636.748,851.454C636.748,851.454,636.748,851.454,636.748,851.454M1003.116,901.692C1003.116,901.692,910.22,994.588,910.22,994.588C874.319,1030.489,816.023,1030.489,780,994.588C780,994.588,691.015,905.603,691.015,905.603C691.015,905.603,899.32,697.298,899.32,697.298C899.32,697.298,1003.116,801.094,1003.116,801.094C1030.961,828.941,1030.961,873.847,1003.116,901.692C1003.116,901.692,1003.116,901.692,1003.116,901.692M0.58,31.387C-3.211,14.326,12.192,-0.962,29.255,3.187C29.255,3.187,261.376,59.468,261.376,59.468C261.376,59.468,53.189,267.775,53.189,267.775C53.189,267.775,0.58,31.387,0.58,31.387C0.58,31.387,0.58,31.387,0.58,31.387" class="icon-pencil-edit-button"/><glyph unicode="&#x0058;" d="M1024.012,216.225C1026.182,199.602,1021.116,185.147,1008.836,172.864C1008.836,172.864,864.658,29.776,864.658,29.776C858.154,22.549,849.664,16.401,839.186,11.347C828.706,6.287,818.409,3.035,808.295,1.591C807.573,1.591,805.4,1.405,801.784,1.044C798.176,0.684,793.479,0.5,787.697,0.5C773.962,0.5,751.738,2.849,721.024,7.548C690.309,12.247,652.731,23.812,608.288,42.238C563.836,60.665,513.43,88.312,457.062,125.166C400.694,162.018,340.709,212.61,277.112,276.931C226.524,326.797,184.607,374.495,151.364,420.022C118.12,465.554,91.381,507.65,71.145,546.315C50.908,584.979,35.732,620.029,25.613,651.466C15.496,682.903,8.63,710.004,5.017,732.769C1.404,755.534,-0.042,773.421,0.681,786.429C1.404,799.437,1.765,806.664,1.765,808.109C3.21,818.228,6.463,828.526,11.521,839.005C16.58,849.483,22.723,857.976,29.95,864.479C29.95,864.479,174.127,1008.656,174.127,1008.656C184.244,1018.774,195.807,1023.833,208.816,1023.833C218.211,1023.833,226.522,1021.123,233.749,1015.703C240.975,1010.283,247.118,1003.598,252.177,995.648C252.177,995.648,368.17,775.588,368.17,775.588C374.674,764.025,376.48,751.378,373.59,737.647C370.698,723.916,364.555,712.353,355.161,702.958C355.161,702.958,302.044,649.84,302.044,649.84C300.598,648.395,299.333,646.046,298.249,642.794C297.165,639.542,296.622,636.832,296.622,634.664C299.514,619.487,306.018,602.143,316.136,582.63C324.807,565.285,338.178,544.146,356.245,519.213C374.312,494.281,399.968,465.556,433.211,433.035C465.733,399.787,494.64,373.954,519.935,355.522C545.224,337.101,566.369,323.545,583.353,314.872C600.336,306.2,613.345,300.961,622.376,299.159C622.376,299.159,635.923,296.448,635.923,296.448C637.368,296.448,639.723,296.992,642.971,298.073C646.223,299.159,648.572,300.422,650.019,301.87C650.019,301.87,711.807,364.744,711.807,364.744C724.823,376.305,739.992,382.087,757.339,382.087C769.628,382.087,779.379,379.92,786.606,375.582C786.606,375.582,787.688,375.582,787.688,375.582C787.688,375.582,996.906,252.002,996.906,252.002C1012.087,242.6,1021.12,230.679,1024.012,216.225C1024.012,216.225,1024.012,216.225,1024.012,216.225" class="icon-phone-receiver"/><glyph unicode="&#x0059;" d="M512.334,1024C324.126,1024,171,870.874,171,682.666C171,626.166,185.126,570.146,211.98,520.458C211.98,520.458,493.668,11,493.668,11C497.418,4.208,504.564,0,512.334,0C520.104,0,527.25,4.208,531,11C531,11,812.792,520.626,812.792,520.626C839.542,570.146,853.668,626.168,853.668,682.668C853.668,870.874,700.542,1024,512.334,1024C512.334,1024,512.334,1024,512.334,1024M512.334,512C418.23,512,341.668,588.562,341.668,682.666C341.668,776.77,418.23,853.332,512.334,853.332C606.438,853.332,683,776.77,683,682.666C683,588.562,606.438,512,512.334,512C512.334,512,512.334,512,512.334,512" class="icon-pin"/><glyph unicode="&#x005a;" d="M879.795,532.578C879.795,532.578,172.73,1020.209,172.73,1020.209C165.245,1025.354,155.541,1025.89,147.544,1021.721C139.523,1017.503,134.5,1009.213,134.5,1000.143C134.5,1000.143,134.5,24.882,134.5,24.882C134.5,15.812,139.523,7.498,147.544,3.279C151.104,1.426,155.005,0.5,158.882,0.5C163.733,0.5,168.561,1.963,172.73,4.816C172.73,4.816,879.795,492.446,879.795,492.446C886.402,497.006,890.328,504.491,890.328,512.512C890.328,520.534,886.378,528.019,879.795,532.578C879.795,532.578,879.795,532.578,879.795,532.578" class="icon-play-button"/><glyph unicode="&#x0061;" d="M574.745,919.51C574.745,919.51,574.745,710.531,574.745,710.531C574.745,710.531,700.133,710.531,700.133,710.531C700.133,710.531,700.133,919.51,700.133,919.51C700.133,919.51,574.745,919.51,574.745,919.51M834.172,1024C834.172,1024,10.5,1024,10.5,1024C10.5,1024,10.5,0,10.5,0C10.5,0,1013.602,0,1013.602,0C1013.602,0,1013.602,844.57,1013.602,844.57C1013.602,844.57,834.172,1024,834.172,1024C834.172,1024,834.172,1024,834.172,1024M219.48,982.204C219.48,982.204,762.827,982.204,762.827,982.204C762.827,982.204,762.827,647.837,762.827,647.837C762.827,647.837,219.48,647.837,219.48,647.837C219.48,647.837,219.48,982.204,219.48,982.204C219.48,982.204,219.48,982.204,219.48,982.204M825.52,41.796C825.52,41.796,177.684,41.796,177.684,41.796C177.684,41.796,177.684,480.653,177.684,480.653C177.684,480.653,825.52,480.653,825.52,480.653C825.52,480.653,825.52,41.796,825.52,41.796C825.52,41.796,825.52,41.796,825.52,41.796M282.173,355.265C282.173,355.265,428.459,355.265,428.459,355.265C440.016,355.265,449.357,364.607,449.357,376.163C449.357,387.72,440.016,397.061,428.459,397.061C428.459,397.061,282.173,397.061,282.173,397.061C270.617,397.061,261.276,387.72,261.276,376.163C261.276,364.607,270.617,355.265,282.173,355.265C282.173,355.265,282.173,355.265,282.173,355.265M282.173,271.673C282.173,271.673,491.153,271.673,491.153,271.673C502.71,271.673,512.051,281.015,512.051,292.571C512.051,304.128,502.71,313.469,491.153,313.469C491.153,313.469,282.173,313.469,282.173,313.469C270.617,313.469,261.276,304.128,261.276,292.571C261.276,281.015,270.617,271.673,282.173,271.673C282.173,271.673,282.173,271.673,282.173,271.673M553.847,271.673C559.489,271.673,564.714,273.972,568.684,277.734C572.446,281.704,574.745,287.138,574.745,292.571C574.745,298.005,572.446,303.459,568.684,307.409C560.952,315.141,546.951,315.141,539.218,307.409C535.248,303.459,532.949,298.235,532.949,292.571C532.949,286.929,535.227,281.704,539.009,277.734C542.959,273.972,548.184,271.673,553.847,271.673C553.847,271.673,553.847,271.673,553.847,271.673" class="icon-save"/><glyph unicode="&#x0062;" d="M299.793,10.593C292.731,3.531,283.903,0,274.193,0C264.483,0,255.655,3.531,248.593,10.593C234.469,24.717,234.469,47.669,248.593,61.793C248.593,61.793,698.8,512,698.8,512C698.8,512,248.593,962.207,248.593,962.207C234.469,976.331,234.469,999.283,248.593,1013.407C262.717,1027.531,285.669,1027.531,299.793,1013.407C299.793,1013.407,775.6,537.6,775.6,537.6C789.724,523.476,789.724,500.524,775.6,486.4C775.6,486.4,299.793,10.593,299.793,10.593C299.793,10.593,299.793,10.593,299.793,10.593" class="icon-keyboard-right-arrow-button"/><glyph unicode="&#x0063;" d="M991.596,91.298C991.596,91.298,747.883,344.773,747.883,344.773C810.546,419.264,844.879,512.989,844.879,610.56C844.879,838.527,659.407,1024,431.44,1024C203.473,1024,18,838.527,18,610.56C18,382.593,203.473,197.121,431.44,197.121C517.022,197.121,598.577,222.934,668.305,271.935C668.305,271.935,913.87,16.538,913.87,16.538C924.134,5.878,937.939,0,952.733,0C966.736,0,980.02,5.339,990.104,15.046C1011.531,35.664,1012.214,69.853,991.596,91.298C991.596,91.298,991.596,91.298,991.596,91.298M431.44,916.146C599.943,916.146,737.025,779.064,737.025,610.56C737.025,442.057,599.943,304.975,431.44,304.975C262.936,304.975,125.854,442.057,125.854,610.56C125.854,779.064,262.936,916.146,431.44,916.146C431.44,916.146,431.44,916.146,431.44,916.146" class="icon-search"/><glyph unicode="&#x0064;" d="M982,674C982,723.014,957.556,768.936,918.142,796.754C945.018,820.586,962,855.338,962,894C962,965.682,903.682,1024,832,1024C760.318,1024,702,965.682,702,894C702,855.338,718.982,820.586,745.858,796.754C706.444,768.936,682,723.014,682,674C682,674,682,602,682,602C682,602,982,602,982,602C982,602,982,674,982,674C982,674,982,674,982,674M83,30C83,13.432,96.432,0,113,0C113,0,911,0,911,0C927.568,0,941,13.432,941,30C941,30,941,318,941,318C941,318,83,318,83,318C83,318,83,30,83,30C83,30,83,30,83,30M203,228C203,244.568,216.432,258,233,258C233,258,791,258,791,258C807.568,258,821,244.568,821,228C821,228,821,90,821,90C821,73.432,807.568,60,791,60C791,60,233,60,233,60C216.432,60,203,73.432,203,90C203,90,203,228,203,228C203,228,203,228,203,228M662,674C662,723.014,637.556,768.936,598.142,796.754C625.018,820.586,642,855.338,642,894C642,965.682,583.682,1024,512,1024C440.318,1024,382,965.682,382,894C382,855.338,398.982,820.586,425.858,796.754C386.444,768.936,362,723.014,362,674C362,674,362,602,362,602C362,602,662,602,662,602C662,602,662,674,662,674C662,674,662,674,662,674M342,674C342,723.014,317.556,768.936,278.142,796.754C305.018,820.586,322,855.338,322,894C322,965.682,263.682,1024,192,1024C120.318,1024,62,965.682,62,894C62,855.338,78.982,820.586,105.858,796.754C66.444,768.936,42,723.014,42,674C42,674,42,602,42,602C42,602,342,602,342,602C342,602,342,674,342,674C342,674,342,674,342,674M984,542C984,542,40,542,40,542C23.432,542,10,528.568,10,512C10,512,10,408,10,408C10,391.432,23.432,378,40,378C40,378,984,378,984,378C1000.568,378,1014,391.432,1014,408C1014,408,1014,512,1014,512C1014,528.568,1000.568,542,984,542C984,542,984,542,984,542" class="icon-jury"/><glyph unicode="&#x0065;" d="M717.28,789.904C717.28,789.904,717.28,962.552,717.28,962.552C717.28,990.075,694.769,1012.595,667.237,1012.595C667.237,1012.595,50.043,1012.595,50.043,1012.595C22.519,1012.595,0,990.075,0,962.552C0,962.552,0,930.024,0,930.024C0,930.024,0,277.8,0,277.8C0,277.8,0,255.273,0,255.273C0,236.932,10.843,219.417,26.689,211.076C26.689,211.076,407.014,14.233,407.014,14.233C423.695,5.893,443.712,17.561,443.712,36.752C443.712,36.752,443.712,228.583,443.712,228.583C443.712,228.583,667.237,228.583,667.237,228.583C694.769,228.583,717.28,251.094,717.28,278.626C717.28,278.626,717.28,552.193,717.28,552.193C717.28,552.193,617.194,552.193,617.194,552.193C617.194,552.193,617.194,353.69,617.194,353.69C617.194,339.511,606.351,328.669,592.173,328.669C592.173,328.669,444.547,328.669,444.547,328.669C444.547,328.669,444.547,585.555,444.547,585.555C444.547,585.555,444.547,748.194,444.547,748.194C444.547,748.194,444.547,753.198,444.547,753.198C444.547,771.547,433.704,789.062,417.857,797.402C417.857,797.402,193.499,912.501,193.499,912.501C193.499,912.501,592.173,912.501,592.173,912.501C606.351,912.501,617.194,901.658,617.194,887.479C617.194,887.479,617.194,789.062,617.194,789.062C617.194,789.062,717.28,789.062,717.28,789.062C717.28,789.062,717.28,789.904,717.28,789.904C717.28,789.904,717.28,789.904,717.28,789.904M845.723,871.649C845.723,871.649,1008.362,709.01,1008.362,709.01C1029.213,688.159,1029.213,657.299,1008.362,636.448C1008.362,636.448,845.723,473.809,845.723,473.809C824.872,452.958,793.169,452.116,772.318,472.967C752.31,492.976,754.803,526.346,773.995,546.363C773.995,546.363,847.382,618.925,847.382,618.925C847.382,618.925,562.981,618.925,562.981,618.925C548.811,618.925,534.623,624.763,525.449,635.606C502.096,660.627,507.934,704.832,537.96,721.513C545.466,725.683,554.641,728.185,562.981,728.185C562.981,728.185,847.391,728.185,847.391,728.185C847.391,728.185,774.837,800.747,774.003,800.747C754.812,819.93,752.31,854.126,772.327,873.309C792.344,893.326,824.872,892.5,845.723,871.649C845.723,871.649,845.723,871.649,845.723,871.649" class="icon-logout"/><glyph unicode="&#x0066;" d="M1024,512.281C1024,463.522,1019.806,424,971.028,424C971.028,424,52.972,424,52.972,424C4.194,424,0,463.522,0,512.281C0,561.039,4.194,600.561,52.972,600.561C52.972,600.561,971.028,600.561,971.028,600.561C1019.806,600.561,1024,561.039,1024,512.281C1024,512.281,1024,512.281,1024,512.281" class="icon-straight-line"/><glyph unicode="&#x0067;" d="M512,832C229.216,832,0,512,0,512C0,512,229.216,192,512,192C794.784,192,1024,512,1024,512C1024,512,794.784,832,512,832C512,832,512,832,512,832M512,320C405.984,320,320,405.984,320,512C320,618.016,405.984,704,512,704C618.016,704,704,618.016,704,512C704,405.984,618.016,320,512,320C512,320,512,320,512,320M512,640C441.312,640,384,582.688,384,512C384,441.312,441.312,384,512,384C582.688,384,640,441.312,640,512C640,582.688,582.688,640,512,640C512,640,512,640,512,640" class="icon-eye"/><glyph unicode="&#x0068;" d="M896.498,192C896.498,156.608,867.89,128,832.498,128C832.498,128,192.5,128,192.5,128C157.172,128,128.5,156.608,128.5,192C128.5,192,128.5,831.998,128.5,831.998C128.5,867.39,157.172,895.998,192.5,895.998C192.5,895.998,384.499,895.998,384.499,895.998C384.499,895.998,597.811,1023.998,597.811,1023.998C597.811,1023.998,128.5,1023.998,128.5,1023.998C57.844,1023.998,0.5,966.654,0.5,895.998C0.5,895.998,0.5,128,0.5,128C0.5,57.344,57.844,0,128.5,0C128.5,0,896.498,0,896.498,0C967.154,0,1024.498,57.344,1024.498,128C1024.498,128,1024.498,655.998,1024.498,655.998C1024.498,655.998,896.498,559.999,896.498,559.999C896.498,559.999,896.498,192,896.498,192C896.498,192,896.498,192,896.498,192M257.395,402.303C256.371,391.167,256.371,384.703,256.371,384.703C256.371,390.911,257.203,396.159,257.395,402.303C257.395,402.303,257.395,402.303,257.395,402.303M703.474,898.558C702.77,892.03,702.45,893.246,702.386,898.942C670.77,899.198,272.819,867.518,256.179,378.175C260.915,353.599,342.003,701.31,704.306,773.118C704.498,767.998,704.498,639.998,704.498,639.998C704.498,639.998,1024.498,831.998,1024.498,831.998C1024.498,831.998,704.498,1023.998,704.498,1023.998C705.586,1024.574,702.066,922.238,702.45,898.942C704.818,898.878,705.65,898.75,703.474,898.558C703.474,898.558,703.474,898.558,703.474,898.558" class="icon-export"/><glyph unicode="&#x0069;" d="M904.534,827.966C904.534,827.966,512,435.433,512,435.433C512,435.433,119.467,827.966,119.467,827.966C119.467,827.966,0,708.5,0,708.5C0,708.5,512,196.5,512,196.5C512,196.5,1024,708.5,1024,708.5C1024,708.5,904.534,827.966,904.534,827.966" class="icon-down-arrow-key"/><glyph unicode="&#x006a;" d="M512.245,400.691C512.245,400.691,156.064,400.691,22.5,89.054C22.5,89.054,245.551,0,512.245,0C778.938,0,1001.99,89.054,1001.99,89.054C868.426,400.691,512.245,400.691,512.245,400.691C512.245,400.691,512.245,400.691,512.245,400.691M512.245,445.201C645.809,445.201,734.862,578.765,734.862,801.383C734.862,1024,512.245,1024,512.245,1024C512.245,1024,289.628,1024,289.628,801.383C289.628,578.765,378.681,445.201,512.245,445.201C512.245,445.201,512.245,445.201,512.245,445.201" class="icon-user"/><glyph unicode="&#x006b;" d="M472.629,394.074C472.629,394.074,472.629,157.777,472.629,157.777C472.629,136.446,464.841,117.975,449.23,102.399C433.619,86.823,415.183,79.034,393.851,79C393.851,79,78.777,79,78.777,79C57.446,79,38.975,86.788,23.399,102.399C7.823,118.01,0.034,136.446,0,157.777C0,157.777,0,394.074,0,394.074C0,415.405,7.788,433.876,23.399,449.453C39.01,465.029,57.446,472.817,78.777,472.851C78.777,472.851,393.851,472.851,393.851,472.851C415.183,472.851,433.654,465.063,449.23,449.453C464.806,433.842,472.594,415.405,472.629,394.074C472.629,394.074,472.629,394.074,472.629,394.074M472.629,866.703C472.629,866.703,472.629,630.406,472.629,630.406C472.629,609.075,464.841,590.604,449.23,575.027C433.619,559.451,415.183,551.663,393.851,551.629C393.851,551.629,78.777,551.629,78.777,551.629C57.446,551.629,38.975,559.417,23.399,575.027C7.823,590.638,0.034,609.075,0,630.406C0,630.406,0,866.703,0,866.703C0,888.034,7.788,906.505,23.399,922.081C39.01,937.658,57.446,945.446,78.777,945.48C78.777,945.48,393.851,945.48,393.851,945.48C415.183,945.48,433.654,937.692,449.23,922.081C464.806,906.471,472.594,888.034,472.629,866.703C472.629,866.703,472.629,866.703,472.629,866.703M1024,394.074C1024,394.074,1024,157.777,1024,157.777C1024,136.446,1016.212,117.975,1000.601,102.399C984.99,86.823,966.554,79.034,945.223,79C945.223,79,630.149,79,630.149,79C608.817,79,590.346,86.788,574.77,102.399C559.194,118.01,551.406,136.446,551.371,157.777C551.371,157.777,551.371,394.074,551.371,394.074C551.371,415.405,559.159,433.876,574.77,449.453C590.381,465.029,608.817,472.817,630.149,472.851C630.149,472.851,945.223,472.851,945.223,472.851C966.554,472.851,985.025,465.063,1000.601,449.453C1016.177,433.842,1023.966,415.405,1024,394.074C1024,394.074,1024,394.074,1024,394.074M1024,866.703C1024,866.703,1024,630.406,1024,630.406C1024,609.075,1016.212,590.604,1000.601,575.027C984.99,559.451,966.554,551.663,945.223,551.629C945.223,551.629,630.149,551.629,630.149,551.629C608.817,551.629,590.346,559.417,574.77,575.027C559.194,590.638,551.406,609.075,551.371,630.406C551.371,630.406,551.371,866.703,551.371,866.703C551.371,888.034,559.159,906.505,574.77,922.081C590.381,937.658,608.817,945.446,630.149,945.48C630.149,945.48,945.223,945.48,945.223,945.48C966.554,945.48,985.025,937.692,1000.601,922.081C1016.177,906.471,1023.966,888.034,1024,866.703C1024,866.703,1024,866.703,1024,866.703" class="icon-home"/><glyph unicode="&#x006c;" d="M213.5,1024C213.5,1024,213.5,896,213.5,896C213.5,896,85.5,896,85.5,896C85.5,896,85.5,0,85.5,0C85.5,0,810.844,0,810.844,0C810.844,0,810.844,128,810.844,128C810.844,128,938.844,128,938.844,128C938.844,128,938.844,1024,938.844,1024C938.844,1024,213.5,1024,213.5,1024C213.5,1024,213.5,1024,213.5,1024M725.5,85.344C725.5,85.344,170.844,85.344,170.844,85.344C170.844,85.344,170.844,810.688,170.844,810.688C170.844,810.688,213.5,810.688,213.5,810.688C213.5,810.688,213.5,128.032,213.5,128.032C213.5,128.032,725.5,128.032,725.5,128.032C725.5,128.032,725.5,85.376,725.5,85.376C725.5,85.376,725.5,85.344,725.5,85.344M853.5,213.344C853.5,213.344,298.844,213.344,298.844,213.344C298.844,213.344,298.844,938.688,298.844,938.688C298.844,938.688,853.5,938.688,853.5,938.688C853.5,938.688,853.5,213.344,853.5,213.344C853.5,213.344,853.5,213.344,853.5,213.344M640.156,810.656C640.156,810.656,384.156,810.656,384.156,810.656C384.156,810.656,384.156,725.312,384.156,725.312C384.156,725.312,640.156,725.312,640.156,725.312C640.156,725.312,640.156,810.656,640.156,810.656C640.156,810.656,640.156,810.656,640.156,810.656M768.156,682.656C768.156,682.656,384.156,682.656,384.156,682.656C384.156,682.656,384.156,640,384.156,640C384.156,640,768.156,640,768.156,640C768.156,640,768.156,682.656,768.156,682.656C768.156,682.656,768.156,682.656,768.156,682.656M768.156,597.344C768.156,597.344,384.156,597.344,384.156,597.344C384.156,597.344,384.156,554.688,384.156,554.688C384.156,554.688,768.156,554.688,768.156,554.688C768.156,554.688,768.156,597.344,768.156,597.344C768.156,597.344,768.156,597.344,768.156,597.344M768.156,512C768.156,512,384.156,512,384.156,512C384.156,512,384.156,469.344,384.156,469.344C384.156,469.344,768.156,469.344,768.156,469.344C768.156,469.344,768.156,512,768.156,512C768.156,512,768.156,512,768.156,512M512.156,426.656C512.156,426.656,384.156,426.656,384.156,426.656C384.156,426.656,384.156,384,384.156,384C384.156,384,512.156,384,512.156,384C512.156,384,512.156,426.656,512.156,426.656C512.156,426.656,512.156,426.656,512.156,426.656" class="icon-paper"/><glyph unicode="&#x006d;" d="M478.365,512.361C478.365,550.05,465.045,582.214,438.376,608.884C411.707,635.553,379.542,648.872,341.853,648.872C304.164,648.872,272,635.553,245.331,608.884C218.661,582.214,205.342,550.05,205.342,512.361C205.342,474.672,218.661,442.507,245.331,415.838C272,389.169,304.164,375.85,341.853,375.85C379.542,375.85,411.707,389.169,438.376,415.838C465.045,442.507,478.365,474.672,478.365,512.361C478.365,512.361,478.365,512.361,478.365,512.361M887.929,239.308C887.929,257.794,881.179,273.802,867.651,287.301C854.122,300.8,838.144,307.549,819.658,307.579C801.172,307.609,785.194,300.829,771.666,287.301C758.137,273.772,751.388,257.765,751.388,239.308C751.388,220.464,758.047,204.396,771.397,191.047C784.746,177.697,800.814,171.038,819.658,171.038C838.503,171.038,854.57,177.697,867.92,191.047C881.269,204.396,887.929,220.464,887.929,239.308C887.929,239.308,887.929,239.308,887.929,239.308M887.929,785.414C887.929,803.9,881.179,819.907,867.651,833.406C854.122,846.905,838.144,853.654,819.658,853.684C801.172,853.714,785.194,846.935,771.666,833.406C758.137,819.878,751.388,803.87,751.388,785.414C751.388,766.569,758.047,750.502,771.397,737.152C784.746,723.803,800.814,717.143,819.658,717.143C838.503,717.143,854.57,723.803,867.92,737.152C881.269,750.502,887.929,766.569,887.929,785.414C887.929,785.414,887.929,785.414,887.929,785.414M683.147,560.891C683.147,560.891,683.147,462.218,683.147,462.218C683.147,458.664,681.892,455.2,679.414,451.825C676.935,448.451,674.068,446.599,670.872,446.211C670.872,446.211,588.207,433.399,588.207,433.399C584.295,420.945,578.62,407.446,571.154,392.872C583.249,375.82,599.227,355.362,619.147,331.53C621.626,327.976,622.88,324.423,622.88,320.869C622.88,316.598,621.626,313.223,619.147,310.745C610.964,300.083,596.3,284.165,575.156,263.021C554.012,241.877,540.065,231.304,533.286,231.275C529.374,231.275,525.64,232.529,522.087,235.008C522.087,235.008,460.745,283,460.745,283C447.574,276.251,433.896,270.726,419.681,266.455C415.768,228.049,411.677,200.484,407.406,183.79C404.927,175.248,399.582,170.978,391.399,170.978C391.399,170.978,292.218,170.978,292.218,170.978C288.306,170.978,284.752,172.322,281.556,174.98C278.361,177.638,276.569,180.773,276.211,184.327C276.211,184.327,263.936,265.918,263.936,265.918C251.841,269.472,238.521,274.997,223.948,282.463C223.948,282.463,161.023,235.008,161.023,235.008C158.544,232.529,154.99,231.275,150.361,231.275C146.449,231.275,142.716,232.708,139.162,235.545C87.974,282.821,62.38,311.282,62.38,320.869C62.38,324.064,63.634,327.439,66.113,330.993C69.667,335.98,76.954,345.388,87.974,359.245C98.994,373.102,107.326,383.943,113.03,391.767C104.847,407.416,98.635,421.99,94.365,435.489C94.365,435.489,13.312,448.301,13.312,448.301C9.758,448.66,6.712,450.362,4.233,453.378C1.754,456.395,0.5,459.859,0.5,463.771C0.5,463.771,0.5,562.444,0.5,562.444C0.5,565.998,1.754,569.462,4.233,572.837C6.712,576.212,9.579,578.063,12.774,578.451C12.774,578.451,95.44,591.263,95.44,591.263C99.352,603.717,105.026,617.216,112.493,631.79C100.397,648.843,84.42,669.3,64.5,693.132C62.021,697.044,60.767,700.598,60.767,703.794C60.767,708.064,62.021,711.618,64.5,714.455C72.325,725.117,86.899,740.945,108.222,761.91C129.545,782.875,143.582,793.358,150.361,793.388C154.273,793.388,158.006,792.133,161.56,789.654C161.56,789.654,222.902,741.662,222.902,741.662C234.997,748.053,248.675,753.727,263.966,758.715C267.878,797.121,271.97,824.507,276.241,840.843C278.719,849.384,284.065,853.654,292.248,853.654C292.248,853.654,391.429,853.654,391.429,853.654C395.341,853.654,398.895,852.311,402.09,849.653C405.286,846.995,407.078,843.859,407.436,840.305C407.436,840.305,419.71,758.715,419.71,758.715C431.806,755.161,445.125,749.636,459.699,742.17C459.699,742.17,522.624,789.625,522.624,789.625C525.461,792.103,529.015,793.358,533.286,793.358C537.198,793.358,540.931,791.924,544.485,789.087C595.673,741.811,621.267,713.35,621.267,703.764C621.267,700.568,620.013,697.193,617.534,693.64C613.263,687.935,605.797,678.349,595.136,664.85C584.474,651.351,576.47,640.689,571.124,632.865C579.307,615.812,585.34,601.238,589.252,589.143C589.252,589.143,670.305,576.869,670.305,576.869C673.859,576.152,676.905,574.27,679.384,571.254C681.863,568.238,683.117,564.773,683.117,560.861C683.117,560.861,683.147,560.891,683.147,560.891M1024.47,276.639C1024.47,276.639,1024.47,201.977,1024.47,201.977C1024.47,196.273,997.98,190.778,945,185.432C940.73,175.846,935.414,166.588,928.993,157.688C947.121,117.52,956.199,92.971,956.199,84.101C956.199,82.698,955.483,81.444,954.079,80.368C910.686,55.133,888.646,42.5,887.959,42.5C885.122,42.5,876.939,50.862,863.44,67.556C849.941,84.251,840.683,96.346,835.696,103.812C828.588,103.095,823.242,102.737,819.688,102.737C816.134,102.737,810.788,103.095,803.681,103.812C798.693,96.346,789.465,84.251,775.936,67.556C762.408,50.862,754.255,42.5,751.417,42.5C750.701,42.5,728.661,55.133,685.297,80.368C683.893,81.444,683.177,82.698,683.177,84.101C683.177,92.971,692.255,117.52,710.383,157.688C703.992,166.558,698.647,175.816,694.376,185.432C641.396,190.778,614.906,196.273,614.906,201.977C614.906,201.977,614.906,276.639,614.906,276.639C614.906,282.343,641.396,287.838,694.376,293.184C699.005,303.487,704.321,312.745,710.383,320.928C692.255,361.096,683.177,385.645,683.177,394.515C683.177,395.919,683.893,397.173,685.297,398.248C686.701,398.965,692.942,402.519,703.962,408.91C714.983,415.301,725.495,421.333,735.44,427.038C745.385,432.742,750.731,435.579,751.447,435.579C754.284,435.579,762.467,427.306,775.966,410.791C789.465,394.276,798.723,382.27,803.71,374.804C810.818,375.521,816.164,375.879,819.718,375.879C823.272,375.879,828.618,375.521,835.725,374.804C853.853,400.04,870.219,419.96,884.793,434.534C884.793,434.534,887.989,435.609,887.989,435.609C889.392,435.609,911.432,423.155,954.109,398.278C955.513,397.203,956.229,395.948,956.229,394.545C956.229,385.675,947.15,361.126,929.023,320.958C935.085,312.775,940.401,303.517,945.03,293.214C998.01,287.868,1024.5,282.373,1024.5,276.669C1024.5,276.669,1024.47,276.639,1024.47,276.639M1024.47,822.745C1024.47,822.745,1024.47,748.083,1024.47,748.083C1024.47,742.379,997.98,736.884,945,731.538C940.73,721.951,935.414,712.693,928.993,703.794C947.121,663.626,956.199,639.077,956.199,630.207C956.199,628.803,955.483,627.549,954.079,626.474C910.686,601.238,888.646,588.605,887.959,588.605C885.122,588.605,876.939,596.968,863.44,613.662C849.941,630.356,840.683,642.451,835.696,649.918C828.588,649.201,823.242,648.843,819.688,648.843C816.134,648.843,810.788,649.201,803.681,649.918C798.693,642.451,789.465,630.356,775.936,613.662C762.408,596.968,754.255,588.605,751.417,588.605C750.701,588.605,728.661,601.238,685.297,626.474C683.893,627.549,683.177,628.803,683.177,630.207C683.177,639.077,692.255,663.626,710.383,703.794C703.992,712.663,698.647,721.921,694.376,731.538C641.396,736.884,614.906,742.379,614.906,748.083C614.906,748.083,614.906,822.745,614.906,822.745C614.906,828.449,641.396,833.944,694.376,839.29C699.005,849.593,704.321,858.851,710.383,867.034C692.255,907.202,683.177,931.751,683.177,940.62C683.177,942.024,683.893,943.278,685.297,944.353C686.701,945.07,692.942,948.624,703.962,955.015C714.983,961.406,725.495,967.439,735.44,973.143C745.385,978.847,750.731,981.684,751.447,981.684C754.284,981.684,762.467,973.412,775.966,956.897C789.465,940.381,798.723,928.376,803.71,920.91C810.818,921.626,816.164,921.985,819.718,921.985C823.272,921.985,828.618,921.626,835.725,920.91C853.853,946.145,870.219,966.065,884.793,980.639C884.793,980.639,887.989,981.714,887.989,981.714C889.392,981.714,911.432,969.261,954.109,944.383C955.513,943.308,956.229,942.054,956.229,940.65C956.229,931.78,947.15,907.232,929.023,867.064C935.085,858.881,940.401,849.623,945.03,839.319C998.01,833.974,1024.5,828.479,1024.5,822.774C1024.5,822.774,1024.47,822.745,1024.47,822.745" class="icon-gear"/><glyph unicode="&#x006e;" d="M1024,438.857C1024,438.857,585.143,438.857,585.143,438.857C585.143,438.857,585.143,0,585.143,0C585.143,0,438.857,0,438.857,0C438.857,0,438.857,438.857,438.857,438.857C438.857,438.857,0,438.857,0,438.857C0,438.857,0,585.143,0,585.143C0,585.143,438.857,585.143,438.857,585.143C438.857,585.143,438.857,1024,438.857,1024C438.857,1024,585.143,1024,585.143,1024C585.143,1024,585.143,585.143,585.143,585.143C585.143,585.143,1024,585.143,1024,585.143C1024,585.143,1024,438.857,1024,438.857C1024,438.857,1024,438.857,1024,438.857" class="icon-add-plus-button"/><glyph unicode="&#x006f;" d="M512.427,523.197C626.278,523.197,718.581,635.304,718.581,773.597C718.581,911.892,688.277,1024,512.427,1024C336.577,1024,306.266,911.892,306.266,773.597C306.266,635.304,398.57,523.197,512.427,523.197C512.427,523.197,512.427,523.197,512.427,523.197M123.041,140.864C123.005,149.296,122.97,143.24,123.041,140.864C123.041,140.864,123.041,140.864,123.041,140.864C123.041,140.864,123.041,140.864,123.041,140.864M901.795,134.279C901.907,136.587,901.833,150.294,901.795,134.279C901.795,134.279,901.795,134.279,901.795,134.279C901.795,134.279,901.795,134.279,901.795,134.279M901.357,150.976C897.539,391.885,866.075,460.531,625.31,503.984C625.31,503.984,591.418,460.797,512.424,460.797C433.43,460.797,399.532,503.984,399.532,503.984C161.394,461.005,128.017,393.377,123.629,158.802C123.269,139.647,123.102,138.641,123.038,140.864C123.052,136.698,123.07,128.992,123.07,115.554C123.07,115.554,180.39,0,512.424,0C844.451,0,901.778,115.554,901.778,115.554C901.778,124.188,901.784,130.191,901.793,134.276C901.728,132.901,901.599,135.566,901.357,150.976C901.357,150.976,901.357,150.976,901.357,150.976" class="icon-man-user"/><glyph unicode="&#x0070;" d="M1023.512,216.225C1025.682,199.602,1020.616,185.147,1008.336,172.864C1008.336,172.864,864.158,29.776,864.158,29.776C857.654,22.549,849.164,16.401,838.686,11.347C828.206,6.287,817.909,3.035,807.795,1.591C807.073,1.591,804.9,1.405,801.284,1.044C797.676,0.684,792.979,0.5,787.197,0.5C773.462,0.5,751.238,2.849,720.524,7.548C689.809,12.247,652.231,23.812,607.788,42.238C563.336,60.665,512.93,88.312,456.562,125.166C400.194,162.018,340.209,212.61,276.612,276.931C226.024,326.797,184.107,374.495,150.864,420.022C117.62,465.554,90.881,507.65,70.645,546.315C50.408,584.979,35.232,620.029,25.113,651.466C14.996,682.903,8.13,710.004,4.517,732.769C0.904,755.534,-0.542,773.421,0.181,786.429C0.904,799.437,1.265,806.664,1.265,808.109C2.71,818.228,5.963,828.526,11.021,839.005C16.08,849.483,22.223,857.976,29.45,864.479C29.45,864.479,173.627,1008.656,173.627,1008.656C183.744,1018.774,195.307,1023.833,208.316,1023.833C217.711,1023.833,226.022,1021.123,233.249,1015.703C240.475,1010.283,246.618,1003.598,251.677,995.648C251.677,995.648,367.67,775.588,367.67,775.588C374.174,764.025,375.98,751.378,373.09,737.647C370.198,723.916,364.055,712.353,354.661,702.958C354.661,702.958,301.544,649.84,301.544,649.84C300.098,648.395,298.833,646.046,297.749,642.794C296.665,639.542,296.122,636.832,296.122,634.664C299.014,619.487,305.518,602.143,315.636,582.63C324.307,565.285,337.678,544.146,355.745,519.213C373.812,494.281,399.468,465.556,432.711,433.035C465.233,399.787,494.14,373.954,519.435,355.522C544.724,337.101,565.869,323.545,582.853,314.872C599.836,306.2,612.845,300.961,621.876,299.159C621.876,299.159,635.423,296.448,635.423,296.448C636.868,296.448,639.223,296.992,642.471,298.073C645.723,299.159,648.072,300.422,649.519,301.87C649.519,301.87,711.307,364.744,711.307,364.744C724.323,376.305,739.492,382.087,756.839,382.087C769.128,382.087,778.879,379.92,786.106,375.582C786.106,375.582,787.188,375.582,787.188,375.582C787.188,375.582,996.406,252.002,996.406,252.002C1011.587,242.6,1020.62,230.679,1023.512,216.225C1023.512,216.225,1023.512,216.225,1023.512,216.225" class="icon-phone-receiver"/><glyph unicode="&#x0071;" d="M832.167,908.672C832.167,908.672,692.177,908.672,692.177,908.672C692.177,908.672,692.177,935.808,692.177,935.808C692.177,959.36,673.063,978.475,649.511,978.475C649.511,978.475,623.527,978.475,623.527,978.475C623.527,978.475,623.527,981.333,623.527,981.333C623.548,1004.885,604.433,1024,580.881,1024C580.881,1024,443.729,1024,443.729,1024C420.199,1024,401.148,1004.971,401.063,981.461C401.063,981.461,401.063,978.453,401.063,978.453C401.063,978.453,375.249,978.453,375.249,978.453C351.697,978.453,332.583,959.339,332.583,935.787C332.583,935.787,332.583,908.651,332.583,908.651C332.583,908.651,192.167,908.651,192.167,908.651C168.615,908.651,149.5,889.536,149.5,865.984C149.5,865.984,149.5,42.667,149.5,42.667C149.5,19.115,168.615,0,192.167,0C192.167,0,832.167,0,832.167,0C855.719,0,874.833,19.115,874.833,42.667C874.833,42.667,874.833,866.005,874.833,866.005C874.833,889.557,855.719,908.672,832.167,908.672C832.167,908.672,832.167,908.672,832.167,908.672M417.916,893.141C417.916,893.141,443.367,893.141,443.367,893.141C443.431,893.141,443.495,893.12,443.58,893.12C443.58,893.12,580.881,893.12,580.881,893.12C580.945,893.12,581.009,893.141,581.095,893.141C581.095,893.141,606.865,893.141,606.865,893.141C606.865,893.141,606.865,866.005,606.865,866.005C606.865,866.005,606.865,839.339,606.865,839.339C606.865,839.339,417.937,839.339,417.937,839.339C417.937,839.339,417.937,866.005,417.937,866.005C417.937,866.005,417.916,866.005,417.916,866.005C417.916,866.005,417.916,893.141,417.916,893.141C417.916,893.141,417.916,893.141,417.916,893.141M789.5,85.333C789.5,85.333,234.833,85.333,234.833,85.333C234.833,85.333,234.833,823.339,234.833,823.339C234.833,823.339,332.583,823.339,332.583,823.339C332.583,823.339,332.583,796.672,332.583,796.672C332.583,773.12,351.697,754.005,375.249,754.005C375.249,754.005,649.511,754.005,649.511,754.005C673.063,754.005,692.177,773.12,692.177,796.672C692.177,796.672,692.177,823.339,692.177,823.339C692.177,823.339,789.5,823.339,789.5,823.339C789.5,823.339,789.5,85.333,789.5,85.333C789.5,85.333,789.5,85.333,789.5,85.333M673.255,674.88C673.255,674.88,351.356,674.88,351.356,674.88C327.804,674.88,308.689,655.765,308.689,632.213C308.689,608.661,327.804,589.547,351.356,589.547C351.356,589.547,673.255,589.547,673.255,589.547C696.807,589.547,715.921,608.661,715.921,632.213C715.921,655.765,696.807,674.88,673.255,674.88C673.255,674.88,673.255,674.88,673.255,674.88M673.255,533.845C673.255,533.845,351.356,533.845,351.356,533.845C327.804,533.845,308.689,514.731,308.689,491.179C308.689,467.627,327.804,448.512,351.356,448.512C351.356,448.512,673.255,448.512,673.255,448.512C696.807,448.512,715.921,467.627,715.921,491.179C715.921,514.731,696.807,533.845,673.255,533.845C673.255,533.845,673.255,533.845,673.255,533.845M673.255,392.832C673.255,392.832,351.356,392.832,351.356,392.832C327.804,392.832,308.689,373.717,308.689,350.165C308.689,326.613,327.804,307.499,351.356,307.499C351.356,307.499,673.255,307.499,673.255,307.499C696.807,307.499,715.921,326.613,715.921,350.165C715.921,373.717,696.807,392.832,673.255,392.832C673.255,392.832,673.255,392.832,673.255,392.832M673.255,251.819C673.255,251.819,557.095,251.819,557.095,251.819C533.543,251.819,514.428,232.704,514.428,209.152C514.428,185.6,533.543,166.485,557.095,166.485C557.095,166.485,673.255,166.485,673.255,166.485C696.807,166.485,715.921,185.6,715.921,209.152C715.921,232.704,696.807,251.819,673.255,251.819C673.255,251.819,673.255,251.819,673.255,251.819" class="icon-report"/><glyph unicode="&#x0072;" d="M1024,679.011C1024,831.734,900.192,955.536,747.468,955.536C647.743,955.536,560.651,902.574,511.997,823.423C463.349,902.574,376.22,955.536,276.496,955.536C123.773,955.536,0,831.734,0,679.011C0,595.861,36.846,521.472,94.916,470.814C94.916,470.814,486.763,78.952,486.763,78.952C493.455,72.26,502.53,68.5,511.997,68.5C521.463,68.5,530.539,72.26,537.231,78.952C537.231,78.952,929.077,470.814,929.077,470.814C987.15,521.472,1024,595.861,1024,679.011C1024,679.011,1024,679.011,1024,679.011" class="icon-valentines-heart"/><glyph unicode="&#x0073;" d="M603.061,512.468C603.061,512.468,1005.737,915.143,1005.737,915.143C1030.754,940.14,1030.754,980.698,1005.737,1005.694C980.719,1030.713,940.204,1030.713,915.186,1005.694C915.186,1005.694,512.511,603.019,512.511,603.019C512.511,603.019,109.814,1005.694,109.814,1005.694C84.796,1030.713,44.281,1030.713,19.263,1005.694C-5.754,980.698,-5.754,940.14,19.263,915.143C19.263,915.143,421.96,512.468,421.96,512.468C421.96,512.468,19.263,109.793,19.263,109.793C-5.754,84.796,-5.754,44.238,19.263,19.242C31.772,6.754,48.166,0.5,64.539,0.5C80.911,0.5,97.305,6.754,109.814,19.263C109.814,19.263,512.511,421.939,512.511,421.939C512.511,421.939,915.186,19.263,915.186,19.263C927.695,6.754,944.089,0.5,960.461,0.5C976.834,0.5,993.228,6.754,1005.737,19.263C1030.754,44.26,1030.754,84.818,1005.737,109.814C1005.737,109.814,603.061,512.468,603.061,512.468C603.061,512.468,603.061,512.468,603.061,512.468" class="icon-close"/><glyph unicode="&#x0074;" d="M234.666,555C234.666,555,704,555,704,555C715.792,555,725.334,564.542,725.334,576.334C725.334,588.126,715.792,597.668,704,597.668C704,597.668,234.666,597.668,234.666,597.668C222.874,597.668,213.332,588.126,213.332,576.334C213.332,564.542,222.876,555,234.666,555C234.666,555,234.666,555,234.666,555M490.666,341.668C490.666,341.668,234.666,341.668,234.666,341.668C222.874,341.668,213.332,332.126,213.332,320.334C213.332,308.542,222.874,299,234.666,299C234.666,299,490.666,299,490.666,299C502.458,299,512,308.542,512,320.334C512,332.126,502.458,341.668,490.666,341.668C490.666,341.668,490.666,341.668,490.666,341.668M942.334,725.668C941.098,725.668,939.9,725.358,938.668,725.3C938.668,725.3,938.668,896.334,938.668,896.334C938.668,943.396,900.376,981.668,853.334,981.668C853.334,981.668,85.334,981.668,85.334,981.668C38.292,981.668,0,943.396,0,896.334C0,896.334,0,128.334,0,128.334C0,81.272,38.292,43,85.334,43C85.334,43,853.334,43,853.334,43C900.376,43,938.668,81.27,938.668,128.334C938.668,128.334,938.668,524.844,938.668,524.844C938.668,524.844,1000.084,586.25,1000.084,586.25C1000.084,586.25,1000.084,586.25,1000.084,586.27C1015.292,601.478,1024,622.52,1024,644C1024,689.042,987.376,725.668,942.334,725.668C942.334,725.668,942.334,725.668,942.334,725.668M277.334,896.334C289.116,896.334,298.668,886.784,298.668,875C298.668,863.218,289.116,853.666,277.334,853.666C265.552,853.666,256,863.22,256,875C256,886.784,265.552,896.334,277.334,896.334C277.334,896.334,277.334,896.334,277.334,896.334M192,896.334C203.782,896.334,213.334,886.784,213.334,875C213.334,863.218,203.782,853.666,192,853.666C180.218,853.666,170.666,863.218,170.666,875C170.666,886.784,180.218,896.334,192,896.334C192,896.334,192,896.334,192,896.334M106.666,896.334C118.448,896.334,128,886.784,128,875C128,863.218,118.448,853.666,106.666,853.666C94.884,853.666,85.332,863.218,85.332,875C85.334,886.784,94.886,896.334,106.666,896.334C106.666,896.334,106.666,896.334,106.666,896.334M853.334,128.334C853.334,128.334,85.334,128.334,85.334,128.334C85.334,128.334,85.334,768.334,85.334,768.334C85.334,768.334,853.334,768.334,853.334,768.334C853.334,768.334,853.334,670.506,853.334,670.506C853.334,670.506,652.464,469.668,652.464,469.668C652.464,469.668,234.666,469.668,234.666,469.668C222.874,469.668,213.332,460.126,213.332,448.334C213.332,436.542,222.874,427,234.666,427C234.666,427,618.236,427,618.236,427C618.236,427,597.75,324.52,597.75,324.52C596.334,317.52,598.542,310.29,603.584,305.25C607.626,301.208,613.084,299,618.668,299C620.044,299,621.46,299.146,622.834,299.416C622.834,299.416,729.46,320.75,729.46,320.75C733.626,321.584,737.418,323.604,740.376,326.584C740.376,326.584,853.334,439.524,853.334,439.524C853.334,439.524,853.334,128.334,853.334,128.334C853.334,128.334,853.334,128.334,853.334,128.334M908.498,555.004C908.498,555.004,853.324,610.178,853.324,610.178C853.324,610.178,883.49,640.344,883.49,640.344C883.49,640.344,938.668,585.166,938.668,585.166C938.668,585.166,908.498,555.004,908.498,555.004C908.498,555.004,908.498,555.004,908.498,555.004" class="icon-survey"/><glyph unicode="&#x0075;" d="M768.279,1023.787C768.279,1023.787,635.489,1024,635.489,1024C486.304,1024,389.894,925.087,389.894,771.992C389.894,771.992,389.894,655.8,389.894,655.8C389.894,655.8,256.38,655.8,256.38,655.8C244.843,655.8,235.5,646.446,235.5,634.909C235.5,634.909,235.5,466.56,235.5,466.56C235.5,455.022,244.853,445.68,256.38,445.68C256.38,445.68,389.894,445.68,389.894,445.68C389.894,445.68,389.894,20.88,389.894,20.88C389.894,9.343,399.237,0,410.774,0C410.774,0,584.972,0,584.972,0C596.509,0,605.852,9.353,605.852,20.88C605.852,20.88,605.852,445.68,605.852,445.68C605.852,445.68,761.961,445.68,761.961,445.68C773.499,445.68,782.841,455.022,782.841,466.56C782.841,466.56,782.905,634.909,782.905,634.909C782.905,640.449,780.7,645.754,776.79,649.674C772.881,653.595,767.554,655.8,762.015,655.8C762.015,655.8,605.852,655.8,605.852,655.8C605.852,655.8,605.852,754.298,605.852,754.298C605.852,801.64,617.134,825.673,678.804,825.673C678.804,825.673,768.257,825.705,768.257,825.705C779.784,825.705,789.127,835.058,789.127,846.585C789.127,846.585,789.127,1002.907,789.127,1002.907C789.127,1014.423,779.795,1023.766,768.279,1023.787C768.279,1023.787,768.279,1023.787,768.279,1023.787" class="icon-facebook-logo"/><glyph unicode="&#x0076;" d="M928,1024C928,1024,96,1024,96,1024C43.072,1024,0,980.928,0,928C0,928,0,96,0,96C0,43.072,43.072,0,96,0C96,0,928,0,928,0C980.928,0,1024,43.072,1024,96C1024,96,1024,928,1024,928C1024,980.928,980.928,1024,928,1024C928,1024,928,1024,928,1024M960,96C960,78.368,945.632,64,928,64C928,64,96,64,96,64C78.368,64,64,78.368,64,96C64,96,64,928,64,928C64,945.664,78.368,960,96,960C96,960,928,960,928,960C945.632,960,960,945.664,960,928C960,928,960,96,960,96C960,96,960,96,960,96M300.832,800C300.832,800,213.632,800,213.632,800C202.4,800,193.216,790.816,193.216,779.552C193.216,779.552,193.216,692.416,193.216,692.416C193.216,681.088,202.4,671.904,213.632,671.904C213.632,671.904,300.832,671.904,300.832,671.904C312.064,671.904,321.248,681.088,321.248,692.416C321.248,692.416,321.248,779.552,321.248,779.552C321.248,790.816,312.064,800,300.832,800C300.832,800,300.832,800,300.832,800M369.248,766.016C369.248,766.016,369.248,706.016,369.248,706.016C369.248,706.016,830.752,706.016,830.752,706.016C830.752,706.016,830.752,766.016,830.752,766.016C830.752,766.016,369.248,766.016,369.248,766.016M300.832,576C300.832,576,213.632,576,213.632,576C202.4,576,193.216,566.816,193.216,555.552C193.216,555.552,193.216,468.32,193.216,468.32C193.216,457.088,202.4,447.904,213.632,447.904C213.632,447.904,300.832,447.904,300.832,447.904C312.064,447.904,321.248,457.088,321.248,468.32C321.248,468.32,321.248,555.552,321.248,555.552C321.248,566.816,312.064,576,300.832,576C300.832,576,300.832,576,300.832,576M369.248,542.016C369.248,542.016,369.248,482.016,369.248,482.016C369.248,482.016,830.752,482.016,830.752,482.016C830.752,482.016,830.752,542.016,830.752,542.016C830.752,542.016,369.248,542.016,369.248,542.016M300.832,352C300.832,352,213.632,352,213.632,352C202.4,352,193.216,342.816,193.216,331.552C193.216,331.552,193.216,244.288,193.216,244.288C193.216,233.056,202.4,223.872,213.632,223.872C213.632,223.872,300.832,223.872,300.832,223.872C312.064,223.872,321.248,233.056,321.248,244.288C321.248,244.288,321.248,331.552,321.248,331.552C321.248,342.816,312.064,352,300.832,352C300.832,352,300.832,352,300.832,352M305.248,244.448C305.248,242.08,303.232,240,300.832,240C300.832,240,213.632,240,213.632,240C211.232,240,209.216,241.984,209.216,244.448C209.216,244.448,209.216,331.712,209.216,331.712C209.216,334.016,211.232,336.128,213.632,336.128C213.632,336.128,300.832,336.128,300.832,336.128C303.232,336.128,305.248,334.144,305.248,331.712C305.248,331.712,305.248,244.448,305.248,244.448C305.248,244.448,305.248,244.448,305.248,244.448M369.248,318.016C369.248,318.016,369.248,258.016,369.248,258.016C369.248,258.016,830.752,258.016,830.752,258.016C830.752,258.016,830.752,318.016,830.752,318.016C830.752,318.016,369.248,318.016,369.248,318.016" class="icon-directory-submission-symbol"/><glyph unicode="&#x0077;" d="M1024.5,829.869C986.811,813.169,946.371,801.843,903.882,796.787C947.267,822.766,980.476,863.974,996.216,912.925C955.52,888.866,910.6,871.397,862.736,861.926C824.408,902.814,769.89,928.282,709.42,928.282C593.41,928.282,499.348,834.22,499.348,718.273C499.348,701.829,501.203,685.768,504.787,670.409C330.229,679.177,175.442,762.809,71.845,889.89C53.736,858.919,43.434,822.832,43.434,784.31C43.434,711.426,80.548,647.118,136.858,609.495C102.432,610.646,70.053,620.116,41.708,635.858C41.708,635.858,41.708,633.234,41.708,633.234C41.708,531.493,114.142,446.581,210.188,427.256C192.591,422.521,174.035,419.897,154.838,419.897C141.273,419.897,128.156,421.241,115.294,423.801C142.04,340.296,219.595,279.572,311.482,277.907C239.623,221.597,149.015,188.131,50.602,188.131C33.646,188.131,16.944,189.155,0.5,191.011C93.475,131.309,203.855,96.5,322.488,96.5C708.912,96.5,920.137,416.569,920.137,694.149C920.137,694.149,919.433,721.343,919.433,721.343C960.704,750.78,996.409,787.765,1024.5,829.869C1024.5,829.869,1024.5,829.869,1024.5,829.869" class="icon-twitter-logo-silhouette"/><glyph unicode="&#x0078;" d="M998.92,896.624C982.211,913.334,962.131,921.687,938.656,921.687C938.656,921.687,85.333,921.687,85.333,921.687C61.867,921.687,41.784,913.335,25.063,896.624C8.352,879.911,0,859.828,0,836.36C0,836.36,0,187.836,0,187.836C0,164.363,8.352,144.278,25.063,127.567C41.784,110.856,61.867,102.5,85.333,102.5C85.333,102.5,938.669,102.5,938.669,102.5C962.131,102.5,982.216,110.856,998.928,127.567C1015.637,144.276,1024,164.361,1024,187.836C1024,187.836,1024,836.36,1024,836.36C1024,859.828,1015.637,879.911,998.92,896.624C998.92,896.624,998.92,896.624,998.92,896.624M955.719,187.836C955.719,183.208,954.039,179.219,950.662,175.831C947.281,172.468,943.279,170.781,938.656,170.781C938.656,170.781,85.333,170.781,85.333,170.781C80.713,170.781,76.712,172.468,73.334,175.831C69.959,179.217,68.268,183.208,68.268,187.836C68.268,187.836,68.268,836.368,68.268,836.368C68.268,840.989,69.953,844.981,73.334,848.366C76.714,851.734,80.715,853.424,85.333,853.424C85.333,853.424,938.669,853.424,938.669,853.424C943.285,853.424,947.286,851.734,950.662,848.366C954.026,844.981,955.719,840.989,955.719,836.368C955.719,836.368,955.719,187.836,955.719,187.836C955.719,187.836,955.719,187.836,955.719,187.836C955.719,187.836,955.719,187.836,955.719,187.836M238.938,580.364C267.386,580.364,291.561,590.315,311.474,610.228C331.382,630.141,341.338,654.315,341.338,682.755C341.338,711.205,331.376,735.379,311.474,755.294C291.561,775.2,267.384,785.156,238.938,785.156C210.493,785.156,186.319,775.2,166.406,755.294C146.501,735.381,136.544,711.207,136.544,682.755C136.544,654.315,146.495,630.135,166.406,610.228C186.319,590.32,210.493,580.364,238.938,580.364C238.938,580.364,238.938,580.364,238.938,580.364M392.533,426.768C392.533,426.768,307.199,512.094,307.199,512.094C307.199,512.094,136.537,341.434,136.537,341.434C136.537,341.434,136.537,239.029,136.537,239.029C136.537,239.029,887.465,239.029,887.465,239.029C887.465,239.029,887.465,477.961,887.465,477.961C887.465,477.961,665.601,699.831,665.601,699.831C665.601,699.831,392.533,426.768,392.533,426.768" class="icon-picture"/><glyph unicode="&#x0079;" d="M80.98,828.457C80.98,828.457,449.822,536.295,449.822,536.295C466.547,523.062,489.595,517.181,511.982,518.283C534.331,517.181,557.379,523.025,574.105,536.295C574.105,536.295,942.946,828.457,942.946,828.457C972.5,851.726,965.81,870.804,928.316,870.804C928.316,870.804,512.018,870.804,512.018,870.804C512.018,870.804,95.721,870.804,95.721,870.804C58.19,870.804,51.5,851.726,80.98,828.457C80.98,828.457,80.98,828.457,80.98,828.457M969.596,751.373C969.596,751.373,566.532,445.353,566.532,445.353C551.461,434.031,531.721,428.517,512.055,428.775C492.352,428.517,472.613,434.068,457.541,445.353C457.541,445.353,54.404,751.373,54.404,751.373C24.482,774.054,0,761.886,0,724.355C0,724.355,0,222.262,0,222.262C0,184.731,30.731,154,68.262,154C68.262,154,511.982,154,511.982,154C511.982,154,955.738,154,955.738,154C993.269,154,1024,184.731,1024,222.262C1024,222.262,1024,724.355,1024,724.355C1024,761.886,999.518,774.054,969.596,751.373C969.596,751.373,969.596,751.373,969.596,751.373" class="icon-black-envelope"/><glyph unicode="&#x007a;" d="M1024,555C1024,580.6,1006.933,597.667,981.333,597.667C981.333,597.667,42.667,597.667,42.667,597.667C17.067,597.667,0,580.6,0,555C0,555,0,469.667,0,469.667C0,444.067,17.067,427,42.667,427C42.667,427,981.333,427,981.333,427C1006.933,427,1024,444.067,1024,469.667C1024,469.667,1024,555,1024,555C1024,555,1024,555,1024,555" class="icon-minus"/><glyph unicode="&#x0030;" d="M838.307,934.525C838.307,934.525,364.658,460.878,364.658,460.878C364.658,460.878,185.693,639.845,185.693,639.845C185.693,639.845,0,454.154,0,454.154C0,454.154,178.967,275.185,178.967,275.185C178.967,275.185,364.658,89.5,364.658,89.5C364.658,89.5,550.345,275.185,550.345,275.185C550.345,275.185,1024,748.838,1024,748.838C1024,748.838,838.307,934.525,838.307,934.525" class="icon-checkmark"/><glyph unicode="&#x0031;" d="M1007.776,916.194C1007.776,916.194,16.224,916.194,16.224,916.194C7.265,916.194,0,908.932,0,899.97C0,899.97,0,124.724,0,124.724C0,115.762,7.265,108.5,16.224,108.5C16.224,108.5,1007.776,108.5,1007.776,108.5C1016.741,108.5,1024,115.762,1024,124.724C1024,124.724,1024,899.97,1024,899.97C1024,908.932,1016.741,916.194,1007.776,916.194C1007.776,916.194,1007.776,916.194,1007.776,916.194M926.655,237.848C926.655,237.848,703.522,468.925,703.522,468.925C701.056,471.472,697.023,471.637,694.362,469.295C694.362,469.295,539.6,333.08,539.6,333.08C539.6,333.08,341.79,576.64,341.79,576.64C340.505,578.23,338.626,579.138,336.501,579.093C334.453,579.051,332.542,578.068,331.319,576.426C331.319,576.426,97.345,262.473,97.345,262.473C97.345,262.473,97.345,818.849,97.345,818.849C97.345,818.849,926.655,818.849,926.655,818.849C926.655,818.849,926.655,237.848,926.655,237.848C926.655,237.848,926.655,237.848,926.655,237.848M681.603,584.495C725.532,584.495,761.196,620.13,761.196,664.094C761.196,708.045,725.532,743.699,681.603,743.699C637.639,743.699,602.015,708.045,602.015,664.094C602.015,620.133,637.643,584.495,681.603,584.495C681.603,584.495,681.603,584.495,681.603,584.495" class="icon-photography"/><glyph unicode="&#x0032;" d="M765.717,918.958C697.982,986.692,607.919,1024,512.134,1024C416.329,1024,326.285,986.692,258.551,918.958C133.199,793.625,117.622,557.808,224.815,414.933C224.815,414.933,512.134,0,512.134,0C512.134,0,799.023,414.354,799.023,414.354C906.646,557.808,891.068,793.625,765.717,918.958C765.717,918.958,765.717,918.958,765.717,918.958M515.444,537.779C443.277,537.779,384.538,596.518,384.538,668.685C384.538,740.851,443.277,799.59,515.444,799.59C587.61,799.59,646.349,740.851,646.349,668.685C646.349,596.518,587.61,537.779,515.444,537.779C515.444,537.779,515.444,537.779,515.444,537.779" class="icon-placeholder"/><glyph unicode="&#x0033;" d="M980.48,796.16C952.704,845.568,922.56,854.656,861.184,858.112C799.872,862.272,645.696,864,512.128,864C378.304,864,224.064,862.272,162.816,858.176C101.568,854.656,71.36,845.632,43.328,796.16C14.72,746.816,0,661.824,0,512.192C0,512.064,0,512,0,512C0,511.872,0,511.808,0,511.808C0,511.808,0,511.68,0,511.68C0,362.688,14.72,277.056,43.328,228.224C71.36,178.816,101.504,169.856,162.752,165.696C224.064,162.112,378.304,160,512.128,160C645.696,160,799.872,162.112,861.248,165.632C922.624,169.792,952.768,178.752,980.544,228.16C1009.408,276.992,1024,362.624,1024,511.616C1024,511.616,1024,511.808,1024,511.936C1024,511.936,1024,512.064,1024,512.128C1024,661.824,1009.408,746.816,980.48,796.16C980.48,796.16,980.48,796.16,980.48,796.16M384,320C384,320,384,704,384,704C384,704,704,512,704,512C704,512,384,320,384,320C384,320,384,320,384,320" class="icon-youtube"/></font>
</defs>
</svg>
